# FamiTracker text export 0.4.2

# Song information
TITLE           "Vologda improvs."
AUTHOR          "n1k-o"
COPYRIGHT       "2020"

# Song comment
COMMENT ""

# Global settings
MACHINE         0
FRAMERATE       0
EXPANSION       0
VIBRATO         1
SPLIT           32

# Macros
MACRO       0   0  -1  -1   0 : 15 14 13 12 11 10 9 8 7 6 5 4 3 2 1
MACRO       0   1  -1  -1   0 : 4 3 3 1 1 0
MACRO       0   2  -1  -1   0 : 15 15 15 15 15 15 15 15 15 15 0
MACRO       0   3  -1  -1   0 : 9 8 7 7 6 6 5 5 4 4 3 3 3 3 2 2 2 2 1 1 1 1 1 0
MACRO       0   4  -1  -1   0 : 9 5 3 3 3 3 2 2 2 2 2 2 2 2 1 1 1 1 1 1 1 1 1 0
MACRO       0   5  -1  -1   0 : 9 5 3 0
MACRO       0   6  -1  -1   0 : 3 6 5 6 4 4 4 4 3 3 3 3 3 4 4 5 5 6 6 7 7 8 8 9 9
MACRO       0   7  -1  -1   0 : 6 5 4 4 4 3 3 3 3 2
MACRO       0   8  -1  -1   0 : 10 11 12 10 9 9 9 9 8 8 8 8 8 3
MACRO       0   9  -1  -1   0 : 2 3 4 5 2 2 2 2 1 1 1 1 1 2 2 3 3 4 4 5 5 6 6 7 7
MACRO       0  10  -1  -1   0 : 3 2 2 2 1 1 1 1 1 1
MACRO       0  11  -1  -1   0 : 6 7 8 6 6 5 5 4 4 0
MACRO       0  12  -1  -1   0 : 3 6 5 6 4 4 4 4 3 3 3 3 3 1
MACRO       0  13  -1  -1   0 : 10 11 12 10 9 9 9 9 8 8 8 8 8 3 3 4 4 5 5 6 6 7 7 8 8 9 9
MACRO       0  14  -1  -1   0 : 2 2 2 2 2 2 2 2 2 2 2 2 1 1 1 1 1 1 1 1 1 1 1
MACRO       0  15  -1  -1   0 : 9 10 9 7 6 5 3 2 1 0
MACRO       0  16  -1  -1   0 : 12 10 7 6 3 2
MACRO       0  17  -1  -1   0 : 1 1 1 1 1 1 1 1 1 1 1 1 1 1 1 1 1 1 1 1 1 1 1
MACRO       0  18  -1  -1   0 : 15 15 15 15 0
MACRO       0  19  -1  -1   0 : 2 1 1 1 1 0
MACRO       0  20  -1  -1   0 : 1 1 1 0
MACRO       0  21  -1  -1   0 : 2 4 3 4 3 3 3 3 2 2 2 2 2 3 4
MACRO       0  22  -1  -1   0 : 15 15 15 15 0
MACRO       0  23  -1  -1   0 : 10 5 3 0
MACRO       0  24  -1  -1   0 : 2 5 5 4 4 4 3 3 3 4
MACRO       0  29  -1  -1   0 : 10 8 7 7 7 8 7 3 2 1 0
MACRO       0  39  -1  -1   0 : 15 15 15 15 0
MACRO       1   0  -1  -1   0 : 6 3 0 -3 0 -3 0 -3 0 -3
MACRO       1   1  -1  -1   0 : 0 -2 -4 -6 -8 -10 -12 -14 -16
MACRO       1   2  -1  -1   0 : 0 0 0 0 0 0 0 0 0 0 -1 -1 -1 -1 -1 -1 -1 -1 -1 -1 -1 -1 -2 -2 -2 -2 -2 -2 -2 -2 -2 -2 -2 -3 -3 -3 -3 -3 -3 -3 -3 -3 -3 -3 -4 -4 -4 -4
MACRO       1   3  -1  -1   0 : -4 -2
MACRO       1   4  -1  -1   0 : 24 0 12 0 0 0 0
MACRO       1   5  -1  -1   0 : -4 -2 -1 0
MACRO       1   6  -1  -1   0 : 23 -1 12 0 0 0 0
MACRO       1   7  -1  -1   0 : 19 12 0
MACRO       1   8  -1  -1   0 : 0 -1 0
MACRO       1   9  -1  -1   0 : 12 24 12 12 0
MACRO       1  10  -1  -1   0 : -12 -12 0
MACRO       1  11  -1  -1   0 : -2 -1 0
MACRO       1  12   0  -1   0 : 0 -5 -9 -5
MACRO       1  13   0  -1   0 : 0 -4 -7 -4
MACRO       1  14   0  -1   0 : 0 -3 -7 -3
MACRO       1  15   0  -1   0 : 0 -4 -9 -4
MACRO       1  16   0  -1   0 : 0 -2 -5 -2
MACRO       1  17   0  -1   0 : 0 -3 -8 -3
MACRO       1  18   0  -1   0 : 0 -5 -8 -5
MACRO       1  19   0  -1   0 : 0 -2 -7 -2
MACRO       1  20  -1  -1   0 : 28 24 12 12
MACRO       1  21  -1  -1   0 : 33 32 31 12 0
MACRO       1  22  -1  -1   0 : -4 0
MACRO       1  23  -1  -1   0 : -3 10 5 -4 3
MACRO       1  24  -1  -1   0 : 0 12 0
MACRO       1  25  -1  -1   0 : 24 19 12 9 7 5 3 0
MACRO       1  31  -1  -1   0 : 15 9 5 0
MACRO       2   0  14  -1   0 : 0 0 0 0 0 0 0 0 0 0 0 0 0 0 2 2 2 -2 -2 -2 -2 -2 -2 2 2 2
MACRO       2   1   0  -1   0 : -2 -2 -3 -3 2 2 3 3 2 2 -2 -2
MACRO       2   2  16  -1   0 : 0 0 0 0 0 0 0 0 0 0 0 0 0 0 1 1 0 0 -2 -2 0 0 2 2
MACRO       2   3  14  -1   0 : 0 0 0 0 0 0 0 0 0 0 0 0 0 0 1 2 2 -2 -2 -1 -1 -2 -2 2 2 1
MACRO       4   0  -1  -1   0 : 0
MACRO       4   1  -1  -1   0 : 2
MACRO       4   2  -1  -1   0 : 1
MACRO       4   3   2  -1   0 : 2 1 2
MACRO       4   4  -1  -1   0 : 0
MACRO       4   5  -1  -1   0 : 2
MACRO       4   6  -1  -1   0 : 0

# DPCM samples

# Instruments
INST2A03   0     2   1  -1  -1   0 "snare tri"
INST2A03   1     0   0  -1  -1   0 "snare noise"
INST2A03   2     3   2  -1  -1   0 "crash"
INST2A03   3     4   3  -1  -1   0 "cymbal"
INST2A03   4     5  -1  -1  -1   0 "Hatter"
INST2A03   5     5   5  -1  -1   0 "hihat"
INST2A03   6     8   6   0  -1   2 "Lead 1 port"
INST2A03   7     8   4   0  -1   2 "Lead 1 "
INST2A03   8    13   6   0  -1   2 "Lead 1 vol up"
INST2A03   9     6   4   0  -1   2 "Lead 1 vol.3"
INST2A03  10     9   4   0  -1   2 "Lead 1 vol.2"
INST2A03  11     8   8   2  -1   2 "lead orn -1"
INST2A03  12     8  10   0  -1   2 "Lead main 2"
INST2A03  13    11   9  -1  -1   0 "bass arp"
INST2A03  14    14  16  -1  -1   5 "orn 025"
INST2A03  15     8  -1   2  -1   1 "lead no orn"
INST2A03  16     8  11   2  -1   1 "lead no orn port"
INST2A03  17    12  -1   3  -1   2 "Lead no orn echo"
INST2A03  18    29  23  -1  -1   0 "Tech Snare"
INST2A03  19    39  31  -1  -1   0 "Drum"
INST2A03  20    14  13  -1  -1   5 "orn 047"
INST2A03  21    14  14  -1  -1   5 "orn 037"
INST2A03  22    14  15  -1  -1   5 "orn 049"
INST2A03  23     9  11   2  -1   1 "lead no orn port echo up"
INST2A03  24    14  17  -1  -1   5 "orn 038"
INST2A03  25    14  18  -1  -1   5 "orn 058"
INST2A03  26    14  19  -1  -1   5 "orn 027"
INST2A03  27     0  20  -1  -1   0 "TriKick + Bass"
INST2A03  28     0  21  -1  -1   0 "TriSnare + Bass"
INST2A03  29    15  22  -1  -1   0 "S            (9)"
INST2A03  30    16  24  -1  -1   6 "Trumpet"
INST2A03  31     8  -1   2  -1   2 "lead no orn 2"
INST2A03  32     8  11   2  -1   2 "lead no orn port 2"
INST2A03  33    10  24  -1  -1   6 "Trumpet echo"
INST2A03  34    14  11   2  -1   1 "lead no orn port echo"
INST2A03  35    17  11   2  -1   1 "lead no orn port echo 2"
INST2A03  36    18  -1  -1  -1   1 "bass 2"
INST2A03  37     1   9  -1  -1   0 "bass arp /2"
INST2A03  38    19   9  -1  -1   0 "bass arp /2 /2"
INST2A03  39    19  24  -1  -1   6 "Trumpet echo /2"
INST2A03  40     5  -1  -1  -1   0 "short bass"
INST2A03  41    20   5  -1  -1   0 "hihat /2"
INST2A03  42    21   4   0  -1   2 "Lead 1 vol.3 /2"
INST2A03  43    22  25  -1  -1   0 "Tom"
INST2A03  44    23   3  -1  -1   0 "Tom noise"
INST2A03  45     7   7   1  -1   1 "Arp"
INST2A03  49    10   7   1  -1   1 "Arp echo "
INST2A03  55    24  -1   2  -1   4 "Tron"
INST2A03  63    14  12  -1  -1   5 "orn 059"

# Tracks

TRACK  64   3 130 "Vologda"
COLUMNS : 1 1 1 1 1

ORDER 00 : 00 00 00 00 00
ORDER 01 : 01 01 01 00 00
ORDER 02 : 02 02 02 00 00
ORDER 03 : 03 03 03 01 00
ORDER 04 : 04 04 04 04 00
ORDER 05 : 05 05 05 05 00
ORDER 06 : 06 06 06 04 00
ORDER 07 : 07 07 07 06 00
ORDER 08 : 08 04 04 04 00
ORDER 09 : 09 05 05 05 00
ORDER 0A : 0A 06 06 04 00
ORDER 0B : 0B 07 07 06 00
ORDER 0C : 0C 0C 08 07 00
ORDER 0D : 0D 0D 09 08 00
ORDER 0E : 0E 0E 0A 09 00
ORDER 0F : 0F 0F 0B 0A 00
ORDER 10 : 0A 06 06 04 00
ORDER 11 : 0B 07 07 06 01

PATTERN 00
ROW 00 : D-4 20 . ... : A#3 10 . ... : G-1 37 . ... : ... .. . ... : ... .. . ...
ROW 01 : ... .. . ... : ... .. . ... : ... .. . ... : ... .. . ... : ... .. . ...
ROW 02 : ... .. . ... : ... .. . ... : ... .. . ... : ... .. . ... : ... .. . ...
ROW 03 : ... .. . ... : ... .. . ... : ... .. . ... : ... .. . ... : ... .. . ...
ROW 04 : D-4 1F . ... : A#3 0F . ... : --- .. . ... : ... .. . ... : ... .. . ...
ROW 05 : ... .. . ... : ... .. . ... : ... .. . ... : ... .. . ... : ... .. . ...
ROW 06 : D-4 11 . ... : A#3 23 . ... : G-1 37 . ... : ... .. . ... : ... .. . ...
ROW 07 : ... .. . ... : ... .. . ... : --- .. . ... : ... .. . ... : ... .. . ...
ROW 08 : D-4 1F . ... : A#3 0F . ... : G-1 37 . ... : ... .. . ... : ... .. . ...
ROW 09 : ... .. . ... : ... .. . ... : --- .. . ... : ... .. . ... : ... .. . ...
ROW 0A : D-4 11 . ... : A#3 23 . ... : ... .. . ... : ... .. . ... : ... .. . ...
ROW 0B : ... .. . ... : ... .. . ... : ... .. . ... : ... .. . ... : ... .. . ...
ROW 0C : E-4 20 . ... : C-4 10 . ... : C-2 .. . ... : ... .. . ... : ... .. . ...
ROW 0D : ... .. . ... : ... .. . ... : ... .. . ... : ... .. . ... : ... .. . ...
ROW 0E : ... .. . ... : ... .. . ... : ... .. . ... : ... .. . ... : ... .. . ...
ROW 0F : ... .. . ... : ... .. . ... : ... .. . ... : ... .. . ... : ... .. . ...
ROW 10 : D-4 11 . ... : A#3 23 . ... : --- .. . ... : ... .. . ... : ... .. . ...
ROW 11 : ... .. . ... : ... .. . ... : ... .. . ... : ... .. . ... : ... .. . ...
ROW 12 : E-4 1F . ... : C-4 0F . ... : C-2 37 . ... : ... .. . ... : ... .. . ...
ROW 13 : ... .. . ... : ... .. . ... : --- .. . ... : ... .. . ... : ... .. . ...
ROW 14 : E-4 .. . ... : C-4 .. . ... : C-2 37 . ... : ... .. . ... : ... .. . ...
ROW 15 : ... .. . ... : ... .. . ... : --- .. . ... : ... .. . ... : ... .. . ...
ROW 16 : E-4 11 . ... : C-4 23 . ... : ... .. . ... : ... .. . ... : ... .. . ...
ROW 17 : ... .. . ... : ... .. . ... : ... .. . ... : ... .. . ... : ... .. . ...
ROW 18 : C-4 20 . ... : A-3 10 . ... : F-2 .. . ... : ... .. . ... : ... .. . ...
ROW 19 : ... .. . ... : ... .. . ... : ... .. . ... : ... .. . ... : ... .. . ...
ROW 1A : ... .. . ... : ... .. . ... : ... .. . ... : ... .. . ... : ... .. . ...
ROW 1B : ... .. . ... : ... .. . ... : ... .. . ... : ... .. . ... : ... .. . ...
ROW 1C : C-4 1F . ... : A-3 0F . ... : --- .. . ... : ... .. . ... : ... .. . ...
ROW 1D : ... .. . ... : ... .. . ... : ... .. . ... : ... .. . ... : ... .. . ...
ROW 1E : C-4 11 . ... : A-3 23 . ... : F-2 37 . ... : ... .. . ... : ... .. . ...
ROW 1F : ... .. . ... : ... .. . ... : --- .. . ... : ... .. . ... : ... .. . ...
ROW 20 : C-4 1F . ... : A-3 0F . ... : F-2 37 . ... : ... .. . ... : ... .. . ...
ROW 21 : ... .. . ... : ... .. . ... : --- .. . ... : ... .. . ... : ... .. . ...
ROW 22 : C-4 11 . ... : A-3 23 . ... : ... .. . ... : ... .. . ... : ... .. . ...
ROW 23 : ... .. . ... : ... .. . ... : ... .. . ... : ... .. . ... : ... .. . ...
ROW 24 : D-4 20 . ... : A#3 10 . ... : A#1 .. . ... : ... .. . ... : ... .. . ...
ROW 25 : ... .. . ... : ... .. . ... : ... .. . ... : ... .. . ... : ... .. . ...
ROW 26 : ... .. . ... : ... .. . ... : ... .. . ... : ... .. . ... : ... .. . ...
ROW 27 : ... .. . ... : ... .. . ... : ... .. . ... : ... .. . ... : ... .. . ...
ROW 28 : ... .. . ... : ... .. . ... : --- .. . ... : ... .. . ... : ... .. . ...
ROW 29 : ... .. . ... : ... .. . ... : ... .. . ... : ... .. . ... : ... .. . ...
ROW 2A : C-4 11 . ... : A-3 23 . ... : A#1 37 . ... : ... .. . ... : ... .. . ...
ROW 2B : ... .. . ... : ... .. . ... : --- .. . ... : ... .. . ... : ... .. . ...
ROW 2C : D-4 11 . ... : A#3 23 . ... : A#1 37 . ... : ... .. . ... : ... .. . ...
ROW 2D : ... .. . ... : ... .. . ... : --- .. . ... : ... .. . ... : ... .. . ...
ROW 2E : ... .. . ... : ... .. . ... : ... .. . ... : ... .. . ... : ... .. . ...
ROW 2F : ... .. . D00 : ... .. . ... : ... .. . ... : ... .. . ... : ... .. . ...
ROW 30 : ... .. . ... : ... .. . ... : ... .. . ... : ... .. . ... : ... .. . ...
ROW 31 : ... .. . ... : ... .. . ... : ... .. . ... : ... .. . ... : ... .. . ...
ROW 32 : ... .. . ... : ... .. . ... : ... .. . ... : ... .. . ... : ... .. . ...
ROW 33 : ... .. . ... : ... .. . ... : ... .. . ... : ... .. . ... : ... .. . ...
ROW 34 : ... .. . ... : ... .. . ... : ... .. . ... : ... .. . ... : ... .. . ...
ROW 35 : ... .. . ... : ... .. . ... : ... .. . ... : ... .. . ... : ... .. . ...
ROW 36 : ... .. . ... : ... .. . ... : ... .. . ... : ... .. . ... : ... .. . ...
ROW 37 : ... .. . ... : ... .. . ... : ... .. . ... : ... .. . ... : ... .. . ...
ROW 38 : ... .. . ... : ... .. . ... : ... .. . ... : ... .. . ... : ... .. . ...
ROW 39 : ... .. . ... : ... .. . ... : ... .. . ... : ... .. . ... : ... .. . ...
ROW 3A : ... .. . ... : ... .. . ... : ... .. . ... : ... .. . ... : ... .. . ...
ROW 3B : ... .. . ... : ... .. . ... : ... .. . ... : ... .. . ... : ... .. . ...
ROW 3C : ... .. . ... : ... .. . ... : ... .. . ... : ... .. . ... : ... .. . ...
ROW 3D : ... .. . ... : ... .. . ... : ... .. . ... : ... .. . ... : ... .. . ...
ROW 3E : ... .. . ... : ... .. . ... : ... .. . ... : ... .. . ... : ... .. . ...
ROW 3F : ... .. . ... : ... .. . ... : ... .. . ... : ... .. . ... : ... .. . ...

PATTERN 01
ROW 00 : A#3 20 . ... : G-3 10 . ... : E-2 37 . ... : 0-# 02 . F03 : ... .. . ...
ROW 01 : ... .. . ... : ... .. . ... : ... .. . ... : 1-# 02 . ... : ... .. . ...
ROW 02 : ... .. . ... : ... .. . ... : ... .. . ... : 2-# 02 . ... : ... .. . ...
ROW 03 : ... .. . ... : ... .. . ... : ... .. . ... : 3-# 02 . ... : ... .. . ...
ROW 04 : A#3 1F . ... : G-3 0F . ... : --- .. . ... : 4-# 02 . ... : ... .. . ...
ROW 05 : ... .. . ... : ... .. . ... : ... .. . ... : 5-# 02 . ... : ... .. . ...
ROW 06 : A#3 11 . ... : G-3 23 . ... : E-2 37 . ... : 6-# 02 . ... : ... .. . ...
ROW 07 : ... .. . ... : ... .. . ... : --- .. . ... : 9-# 02 . ... : ... .. . ...
ROW 08 : A#3 1F . ... : G-3 0F . ... : E-2 37 . ... : 7-# 02 . ... : ... .. . ...
ROW 09 : ... .. . ... : ... .. . ... : --- .. . ... : 9-# 02 . ... : ... .. . ...
ROW 0A : A#3 11 . ... : G-3 23 . ... : ... .. . ... : A-# 02 . ... : ... .. . ...
ROW 0B : ... .. . ... : ... .. . ... : ... .. . ... : B-# 02 . ... : ... .. . ...
ROW 0C : A-3 20 . ... : F-3 10 . ... : A-1 .. . ... : ... .. . ... : ... .. . ...
ROW 0D : ... .. . ... : ... .. . ... : ... .. . ... : ... .. . ... : ... .. . ...
ROW 0E : ... .. . ... : ... .. . ... : ... .. . ... : ... .. . ... : ... .. . ...
ROW 0F : ... .. . ... : ... .. . ... : ... .. . ... : ... .. . ... : ... .. . ...
ROW 10 : A#3 11 . ... : G-3 23 . ... : --- .. . ... : ... .. . ... : ... .. . ...
ROW 11 : ... .. . ... : ... .. . ... : ... .. . ... : ... .. . ... : ... .. . ...
ROW 12 : A-3 1F . ... : F-3 0F . ... : A-1 37 . ... : ... .. . ... : ... .. . ...
ROW 13 : ... .. . ... : ... .. . ... : --- .. . ... : ... .. . ... : ... .. . ...
ROW 14 : G-3 .. . ... : E-3 .. . ... : G-1 .. . ... : ... .. . ... : ... .. . ...
ROW 15 : ... .. . ... : ... .. . ... : ... .. . ... : ... .. . ... : ... .. . ...
ROW 16 : A-3 11 . ... : F-3 23 . ... : ... .. . ... : ... .. . ... : ... .. . ...
ROW 17 : ... .. . ... : ... .. . ... : ... .. . ... : ... .. . ... : ... .. . ...
ROW 18 : F-3 20 . ... : D-3 10 . ... : F-1 .. . ... : ... .. . ... : ... .. . ...
ROW 19 : ... .. . ... : ... .. . ... : ... .. . ... : ... .. . ... : ... .. . ...
ROW 1A : ... .. . ... : ... .. . ... : ... .. . ... : ... .. . ... : ... .. . ...
ROW 1B : ... .. . ... : ... .. . ... : ... .. . ... : ... .. . ... : ... .. . ...
ROW 1C : F-3 1F . ... : D-3 0F . ... : --- .. . ... : ... .. . ... : ... .. . ...
ROW 1D : ... .. . ... : ... .. . ... : ... .. . ... : ... .. . ... : ... .. . ...
ROW 1E : F-3 11 . ... : D-3 23 . ... : F-1 37 . ... : ... .. . ... : ... .. . ...
ROW 1F : ... .. . ... : ... .. . ... : --- .. . ... : ... .. . ... : ... .. . ...
ROW 20 : G-3 1F . ... : E-3 0F . ... : G-1 37 . ... : ... .. . ... : ... .. . ...
ROW 21 : ... .. . ... : ... .. . ... : ... .. . ... : ... .. . ... : ... .. . ...
ROW 22 : F-3 11 . ... : D-3 23 . ... : --- .. . ... : ... .. . ... : ... .. . ...
ROW 23 : ... .. . ... : ... .. . ... : ... .. . ... : ... .. . ... : ... .. . ...
ROW 24 : A-3 20 . ... : F-3 10 . ... : D-2 .. . ... : ... .. . ... : ... .. . ...
ROW 25 : ... .. . ... : ... .. . ... : ... .. . ... : ... .. . ... : ... .. . ...
ROW 26 : ... .. . ... : ... .. . ... : ... .. . ... : ... .. . ... : ... .. . ...
ROW 27 : ... .. . ... : ... .. . ... : ... .. . ... : ... .. . ... : ... .. . ...
ROW 28 : ... .. . ... : ... .. . ... : --- .. . ... : ... .. . ... : ... .. . ...
ROW 29 : ... .. . ... : ... .. . ... : ... .. . ... : ... .. . ... : ... .. . ...
ROW 2A : G-3 11 . ... : E-3 23 . ... : D-2 37 . ... : ... .. . ... : ... .. . ...
ROW 2B : ... .. . ... : ... .. . ... : --- .. . ... : ... .. . ... : ... .. . ...
ROW 2C : A-3 11 . ... : F-3 23 . ... : D-2 37 . ... : ... .. . ... : ... .. . ...
ROW 2D : ... .. . ... : ... .. . ... : --- .. . ... : ... .. . ... : ... .. . ...
ROW 2E : ... .. . ... : ... .. . ... : ... .. . ... : ... .. . ... : ... .. . ...
ROW 2F : ... .. . D00 : ... .. . ... : ... .. . ... : ... .. . ... : ... .. . ...
ROW 30 : ... .. . ... : ... .. . ... : ... .. . ... : ... .. . ... : ... .. . ...
ROW 31 : ... .. . ... : ... .. . ... : ... .. . ... : ... .. . ... : ... .. . ...
ROW 32 : ... .. . ... : ... .. . ... : ... .. . ... : ... .. . ... : ... .. . ...
ROW 33 : ... .. . ... : ... .. . ... : ... .. . ... : ... .. . ... : ... .. . ...
ROW 34 : ... .. . ... : ... .. . ... : ... .. . ... : ... .. . ... : ... .. . ...
ROW 35 : ... .. . ... : ... .. . ... : ... .. . ... : ... .. . ... : ... .. . ...
ROW 36 : ... .. . ... : ... .. . ... : ... .. . ... : ... .. . ... : ... .. . ...
ROW 37 : ... .. . ... : ... .. . ... : ... .. . ... : ... .. . ... : ... .. . ...
ROW 38 : ... .. . ... : ... .. . ... : ... .. . ... : ... .. . ... : ... .. . ...
ROW 39 : ... .. . ... : ... .. . ... : ... .. . ... : ... .. . ... : ... .. . ...
ROW 3A : ... .. . ... : ... .. . ... : ... .. . ... : ... .. . ... : ... .. . ...
ROW 3B : ... .. . ... : ... .. . ... : ... .. . ... : ... .. . ... : ... .. . ...
ROW 3C : ... .. . ... : ... .. . ... : ... .. . ... : ... .. . ... : ... .. . ...
ROW 3D : ... .. . ... : ... .. . ... : ... .. . ... : ... .. . ... : ... .. . ...
ROW 3E : ... .. . ... : ... .. . ... : ... .. . ... : ... .. . ... : ... .. . ...
ROW 3F : ... .. . ... : ... .. . ... : ... .. . ... : ... .. . ... : ... .. . B04

PATTERN 02
ROW 00 : A-3 20 . ... : F-3 10 . ... : G-1 37 . ... : ... .. . ... : ... .. . ...
ROW 01 : ... .. . ... : ... .. . ... : ... .. . ... : ... .. . ... : ... .. . ...
ROW 02 : ... .. . ... : ... .. . ... : ... .. . ... : ... .. . ... : ... .. . ...
ROW 03 : ... .. . ... : ... .. . ... : ... .. . ... : ... .. . ... : ... .. . ...
ROW 04 : ... .. . ... : ... .. . ... : --- .. . ... : ... .. . ... : ... .. . ...
ROW 05 : ... .. . ... : ... .. . ... : ... .. . ... : ... .. . ... : ... .. . ...
ROW 06 : ... .. . ... : ... .. . ... : G-1 37 . ... : ... .. . ... : ... .. . ...
ROW 07 : ... .. . ... : ... .. . ... : --- .. . ... : ... .. . ... : ... .. . ...
ROW 08 : A-3 11 . ... : F-3 23 . ... : G-1 37 . ... : ... .. . ... : ... .. . ...
ROW 09 : ... .. . ... : ... .. . ... : --- .. . ... : ... .. . ... : ... .. . ...
ROW 0A : ... .. . ... : ... .. . ... : ... .. . ... : ... .. . ... : ... .. . ...
ROW 0B : ... .. . ... : ... .. . ... : ... .. . ... : ... .. . ... : ... .. . ...
ROW 0C : G-3 1F . ... : E-3 0F . ... : G-1 .. . ... : ... .. . ... : ... .. . ...
ROW 0D : ... .. . ... : ... .. . ... : ... .. . ... : ... .. . ... : ... .. . ...
ROW 0E : ... .. . ... : ... .. . ... : ... .. . ... : ... .. . ... : ... .. . ...
ROW 0F : ... .. . ... : ... .. . ... : ... .. . ... : ... .. . ... : ... .. . ...
ROW 10 : ... .. . ... : ... .. . ... : --- .. . ... : ... .. . ... : ... .. . ...
ROW 11 : ... .. . ... : ... .. . ... : ... .. . ... : ... .. . ... : ... .. . ...
ROW 12 : ... .. . ... : ... .. . ... : G-1 37 . ... : ... .. . ... : ... .. . ...
ROW 13 : ... .. . ... : ... .. . ... : --- .. . ... : ... .. . ... : ... .. . ...
ROW 14 : G-3 11 . ... : E-3 23 . ... : G-1 37 . ... : ... .. . ... : ... .. . ...
ROW 15 : ... .. . ... : ... .. . ... : --- .. . ... : ... .. . ... : ... .. . ...
ROW 16 : ... .. . ... : ... .. . ... : ... .. . ... : ... .. . ... : ... .. . ...
ROW 17 : ... .. . ... : ... .. . ... : ... .. . ... : ... .. . ... : ... .. . ...
ROW 18 : ... .. . ... : ... .. . ... : A-1 .. . ... : ... .. . ... : ... .. . ...
ROW 19 : ... .. . ... : ... .. . ... : ... .. . ... : ... .. . ... : ... .. . ...
ROW 1A : ... .. . ... : ... .. . ... : ... .. . ... : ... .. . ... : ... .. . ...
ROW 1B : ... .. . ... : ... .. . ... : ... .. . ... : ... .. . ... : ... .. . ...
ROW 1C : ... .. . ... : ... .. . ... : --- .. . ... : ... .. . ... : ... .. . ...
ROW 1D : ... .. . ... : ... .. . ... : ... .. . ... : ... .. . ... : ... .. . ...
ROW 1E : E-3 1F . ... : C#3 0F . ... : A-1 37 . ... : ... .. . ... : ... .. . ...
ROW 1F : ... .. . ... : ... .. . ... : --- .. . ... : ... .. . ... : ... .. . ...
ROW 20 : F-3 .. . ... : D-3 .. . ... : A-1 37 . ... : ... .. . ... : ... .. . ...
ROW 21 : ... .. . ... : ... .. . ... : --- .. . ... : ... .. . ... : ... .. . ...
ROW 22 : E-3 11 . ... : C#3 23 . ... : ... .. . ... : ... .. . ... : ... .. . ...
ROW 23 : ... .. . ... : ... .. . ... : ... .. . ... : ... .. . ... : ... .. . ...
ROW 24 : G-3 20 . ... : E-3 10 . ... : A-1 .. . ... : ... .. . ... : ... .. . ...
ROW 25 : ... .. . ... : ... .. . ... : ... .. . ... : ... .. . ... : ... .. . ...
ROW 26 : ... .. . ... : ... .. . ... : ... .. . ... : ... .. . ... : ... .. . ...
ROW 27 : ... .. . ... : ... .. . ... : ... .. . ... : ... .. . ... : ... .. . ...
ROW 28 : E-3 1F . ... : C#3 0F . ... : --- .. . ... : ... .. . ... : ... .. . ...
ROW 29 : ... .. . ... : ... .. . ... : ... .. . ... : ... .. . ... : ... .. . ...
ROW 2A : G-3 11 . ... : E-3 23 . ... : A-1 37 . ... : ... .. . ... : ... .. . ...
ROW 2B : ... .. . ... : ... .. . ... : --- .. . ... : ... .. . ... : ... .. . ...
ROW 2C : F-3 1F . ... : D-3 0F . ... : A-1 37 . ... : ... .. . ... : ... .. . ...
ROW 2D : ... .. . ... : ... .. . ... : --- .. . ... : ... .. . ... : ... .. . ...
ROW 2E : E-3 11 . ... : C#3 23 . ... : ... .. . ... : ... .. . ... : ... .. . ...
ROW 2F : ... .. . ... : ... .. . ... : ... .. . ... : ... .. . ... : ... .. . ...
ROW 30 : D-3 20 . ... : A-2 10 . ... : D-2 37 . ... : ... .. . ... : ... .. . ...
ROW 31 : ... .. . ... : ... .. . ... : ... .. . ... : ... .. . ... : ... .. . ...
ROW 32 : ... .. . ... : ... .. . ... : ... .. . ... : ... .. . ... : ... .. . ...
ROW 33 : ... .. . ... : ... .. . ... : ... .. . ... : ... .. . ... : ... .. . ...
ROW 34 : ... .. . ... : ... .. . ... : --- .. . ... : ... .. . ... : ... .. . ...
ROW 35 : ... .. . ... : ... .. . ... : ... .. . ... : ... .. . ... : ... .. . ...
ROW 36 : F-3 11 . ... : D-3 23 . ... : D-2 .. . ... : ... .. . ... : ... .. . ...
ROW 37 : ... .. . ... : ... .. . ... : --- .. . ... : ... .. . ... : ... .. . ...
ROW 38 : D-3 11 . ... : A-2 23 . ... : D-2 .. . ... : ... .. . ... : ... .. . ...
ROW 39 : ... .. . ... : ... .. . ... : --- .. . ... : ... .. . ... : ... .. . ...
ROW 3A : ... .. . ... : ... .. . ... : ... .. . ... : ... .. . ... : ... .. . ...
ROW 3B : ... .. . D00 : ... .. . ... : ... .. . ... : ... .. . ... : ... .. . ...
ROW 3C : ... .. . ... : ... .. . ... : ... .. . ... : ... .. . ... : ... .. . ...
ROW 3D : ... .. . ... : ... .. . ... : ... .. . ... : ... .. . ... : ... .. . ...
ROW 3E : ... .. . ... : ... .. . ... : ... .. . ... : ... .. . ... : ... .. . ...
ROW 3F : ... .. . ... : ... .. . ... : ... .. . ... : ... .. . ... : ... .. . ...

PATTERN 03
ROW 00 : D-2 1E . ... : D-2 1D . ... : D-2 .. . ... : ... .. . ... : ... .. . ...
ROW 01 : C#2 .. . ... : C#2 .. . ... : C#2 .. . ... : ... .. . ... : ... .. . ...
ROW 02 : C-2 .. . ... : C-2 .. . ... : C-2 .. . ... : ... .. . ... : ... .. . ...
ROW 03 : B-1 .. . ... : B-1 .. . ... : B-1 .. . ... : ... .. . ... : ... .. . ...
ROW 04 : A#1 .. . ... : A#1 .. . ... : A#1 .. . ... : ... .. . ... : ... .. . ...
ROW 05 : A-1 .. . ... : A-1 .. . ... : A-1 .. . ... : ... .. . ... : ... .. . ...
ROW 06 : G#1 .. . ... : G#1 .. . ... : G#1 .. . ... : ... .. . ... : ... .. . ...
ROW 07 : G-1 .. . ... : G-1 .. . ... : G-1 .. . ... : ... .. . ... : ... .. . ...
ROW 08 : F#1 .. . ... : F#1 .. . ... : F#1 .. . ... : ... .. . ... : ... .. . ...
ROW 09 : F-1 .. . ... : F-1 .. . ... : F-1 .. . ... : ... .. . ... : ... .. . ...
ROW 0A : E-1 .. . ... : E-1 .. . ... : E-1 .. . ... : ... .. . ... : ... .. . ...
ROW 0B : D#1 .. . ... : D#1 .. . ... : D#1 .. . D00 : ... .. . ... : ... .. . ...
ROW 0C : ... .. . ... : ... .. . ... : ... .. . ... : ... .. . ... : ... .. . ...
ROW 0D : ... .. . ... : ... .. . ... : ... .. . ... : ... .. . ... : ... .. . ...
ROW 0E : ... .. . ... : ... .. . ... : ... .. . ... : ... .. . ... : ... .. . ...
ROW 0F : ... .. . ... : ... .. . ... : ... .. . ... : ... .. . ... : ... .. . ...
ROW 10 : ... .. . ... : ... .. . ... : ... .. . ... : ... .. . ... : ... .. . ...
ROW 11 : ... .. . ... : ... .. . ... : ... .. . ... : ... .. . ... : ... .. . ...
ROW 12 : ... .. . ... : ... .. . ... : ... .. . ... : ... .. . ... : ... .. . ...
ROW 13 : ... .. . ... : ... .. . ... : ... .. . ... : ... .. . ... : ... .. . ...
ROW 14 : ... .. . ... : ... .. . ... : ... .. . ... : ... .. . ... : ... .. . ...
ROW 15 : ... .. . ... : ... .. . ... : ... .. . ... : ... .. . ... : ... .. . ...
ROW 16 : ... .. . ... : ... .. . ... : ... .. . ... : ... .. . ... : ... .. . ...
ROW 17 : ... .. . ... : ... .. . ... : ... .. . ... : ... .. . ... : ... .. . ...
ROW 18 : ... .. . ... : ... .. . ... : ... .. . ... : ... .. . ... : ... .. . ...
ROW 19 : ... .. . ... : ... .. . ... : ... .. . ... : ... .. . ... : ... .. . ...
ROW 1A : ... .. . ... : ... .. . ... : ... .. . ... : ... .. . ... : ... .. . ...
ROW 1B : ... .. . ... : ... .. . ... : ... .. . ... : ... .. . ... : ... .. . ...
ROW 1C : ... .. . ... : ... .. . ... : ... .. . ... : ... .. . ... : ... .. . ...
ROW 1D : ... .. . ... : ... .. . ... : ... .. . ... : ... .. . ... : ... .. . ...
ROW 1E : ... .. . ... : ... .. . ... : ... .. . ... : ... .. . ... : ... .. . ...
ROW 1F : ... .. . ... : ... .. . ... : ... .. . ... : ... .. . ... : ... .. . ...
ROW 20 : ... .. . ... : ... .. . ... : ... .. . ... : ... .. . ... : ... .. . ...
ROW 21 : ... .. . ... : ... .. . ... : ... .. . ... : ... .. . ... : ... .. . ...
ROW 22 : ... .. . ... : ... .. . ... : ... .. . ... : ... .. . ... : ... .. . ...
ROW 23 : ... .. . ... : ... .. . ... : ... .. . ... : ... .. . ... : ... .. . ...
ROW 24 : ... .. . ... : ... .. . ... : ... .. . ... : ... .. . ... : ... .. . ...
ROW 25 : ... .. . ... : ... .. . ... : ... .. . ... : ... .. . ... : ... .. . ...
ROW 26 : ... .. . ... : ... .. . ... : ... .. . ... : ... .. . ... : ... .. . ...
ROW 27 : ... .. . ... : ... .. . ... : ... .. . ... : ... .. . ... : ... .. . ...
ROW 28 : ... .. . ... : ... .. . ... : ... .. . ... : ... .. . ... : ... .. . ...
ROW 29 : ... .. . ... : ... .. . ... : ... .. . ... : ... .. . ... : ... .. . ...
ROW 2A : ... .. . ... : ... .. . ... : ... .. . ... : ... .. . ... : ... .. . ...
ROW 2B : ... .. . ... : ... .. . ... : ... .. . ... : ... .. . ... : ... .. . ...
ROW 2C : ... .. . ... : ... .. . ... : ... .. . ... : ... .. . ... : ... .. . ...
ROW 2D : ... .. . ... : ... .. . ... : ... .. . ... : ... .. . ... : ... .. . ...
ROW 2E : ... .. . ... : ... .. . ... : ... .. . ... : ... .. . ... : ... .. . ...
ROW 2F : ... .. . ... : ... .. . ... : ... .. . ... : ... .. . ... : ... .. . ...
ROW 30 : ... .. . ... : ... .. . ... : ... .. . ... : ... .. . ... : ... .. . ...
ROW 31 : ... .. . ... : ... .. . ... : ... .. . ... : ... .. . ... : ... .. . ...
ROW 32 : ... .. . ... : ... .. . ... : ... .. . ... : ... .. . ... : ... .. . ...
ROW 33 : ... .. . ... : ... .. . ... : ... .. . ... : ... .. . ... : ... .. . ...
ROW 34 : ... .. . ... : ... .. . ... : ... .. . ... : ... .. . ... : ... .. . ...
ROW 35 : ... .. . ... : ... .. . ... : ... .. . ... : ... .. . ... : ... .. . ...
ROW 36 : ... .. . ... : ... .. . ... : ... .. . ... : ... .. . ... : ... .. . ...
ROW 37 : ... .. . ... : ... .. . ... : ... .. . ... : ... .. . ... : ... .. . ...
ROW 38 : ... .. . ... : ... .. . ... : ... .. . ... : ... .. . ... : ... .. . ...
ROW 39 : ... .. . ... : ... .. . ... : ... .. . ... : ... .. . ... : ... .. . ...
ROW 3A : ... .. . ... : ... .. . ... : ... .. . ... : ... .. . ... : ... .. . ...
ROW 3B : ... .. . ... : ... .. . ... : ... .. . ... : ... .. . ... : ... .. . ...
ROW 3C : ... .. . ... : ... .. . ... : ... .. . ... : ... .. . ... : ... .. . ...
ROW 3D : ... .. . ... : ... .. . ... : ... .. . ... : ... .. . ... : ... .. . ...
ROW 3E : ... .. . ... : ... .. . ... : ... .. . ... : ... .. . ... : ... .. . ...
ROW 3F : ... .. . ... : ... .. . ... : ... .. . ... : ... .. . ... : ... .. . ...

PATTERN 04
ROW 00 : A-3 11 . ... : D-3 1E . ... : D-1 1B . ... : C-# 02 . ... : ... .. . ...
ROW 01 : ... .. . ... : ... .. . ... : D-2 37 . ... : ... .. . ... : ... .. . ...
ROW 02 : C-4 11 . ... : ... .. . ... : ... .. . ... : ... .. . ... : ... .. . ...
ROW 03 : ... .. . ... : ... .. . ... : ... .. . ... : ... .. . ... : ... .. . ...
ROW 04 : A-3 11 . ... : A-3 .. . ... : A-2 .. . ... : C-# 04 . ... : ... .. . ...
ROW 05 : ... .. . ... : --- .. . ... : --- .. . ... : ... .. . ... : ... .. . ...
ROW 06 : D-4 20 . ... : A-3 .. . ... : A-2 .. . ... : ... .. . ... : ... .. . ...
ROW 07 : ... .. . ... : --- .. . ... : --- .. . ... : ... .. . ... : ... .. . ...
ROW 08 : ... .. . ... : D-3 21 . ... : D-1 1C . ... : 9-# 1D . ... : ... .. . ...
ROW 09 : ... .. . ... : ... .. . ... : --- .. . ... : ... .. . ... : ... .. . ...
ROW 0A : ... .. . ... : A-3 1E . ... : A-2 37 . ... : ... .. . ... : ... .. . ...
ROW 0B : ... .. . ... : --- .. . ... : --- .. . ... : ... .. . ... : ... .. . ...
ROW 0C : C-4 1F . ... : C-3 .. . ... : D-1 1B . ... : C-# 04 . ... : ... .. . ...
ROW 0D : ... .. . ... : ... .. . ... : C-2 37 . ... : ... .. . ... : ... .. . ...
ROW 0E : ... .. . ... : ... .. . ... : ... .. . ... : 0-# 05 . ... : ... .. . ...
ROW 0F : ... .. . ... : ... .. . ... : ... .. . ... : ... .. . ... : ... .. . ...
ROW 10 : D-4 11 . ... : A-3 21 . ... : ... .. . ... : C-# 04 . ... : ... .. . ...
ROW 11 : ... .. . ... : ... .. . ... : ... .. . ... : ... .. . ... : ... .. . ...
ROW 12 : ... .. . ... : C-3 21 . ... : ... .. . ... : 0-# 05 . ... : ... .. . ...
ROW 13 : ... .. . ... : ... .. . ... : ... .. . ... : ... .. . ... : ... .. . ...
ROW 14 : C-4 11 . ... : C-4 1E . ... : D-1 1B . ... : C-# 04 . ... : ... .. . ...
ROW 15 : ... .. . ... : --- .. . ... : C-3 04 . ... : ... .. . ... : ... .. . ...
ROW 16 : F-4 20 . ... : C-4 .. . ... : C-3 37 . ... : 0-# 05 . ... : ... .. . ...
ROW 17 : ... .. . ... : --- .. . ... : --- .. . ... : ... .. . ... : ... .. . ...
ROW 18 : ... .. . ... : C-3 27 . ... : D-1 1C . ... : 9-# 1D . ... : ... .. . ...
ROW 19 : ... .. . ... : ... .. . ... : --- .. . ... : ... .. . ... : ... .. . ...
ROW 1A : C-4 11 . ... : C-4 1E . ... : C-3 37 . ... : ... .. . ... : ... .. . ...
ROW 1B : ... .. . ... : --- .. . ... : --- .. . ... : ... .. . ... : ... .. . ...
ROW 1C : E-4 1F . ... : G-3 .. . ... : G-2 .. . ... : C-# 04 . ... : ... .. . ...
ROW 1D : ... .. . ... : ... .. . ... : ... .. . ... : ... .. . ... : ... .. . ...
ROW 1E : ... .. . ... : C-4 21 . ... : ... .. . ... : ... .. . ... : ... .. . ...
ROW 1F : ... .. . ... : ... .. . ... : ... .. . ... : ... .. . ... : ... .. . ...
ROW 20 : F-4 20 . ... : G-2 1E . ... : D-1 1B . ... : C-# 02 . ... : ... .. . ...
ROW 21 : ... .. . ... : ... .. . ... : G-1 37 . ... : ... .. . ... : ... .. . ...
ROW 22 : ... .. . ... : ... .. . ... : ... .. . ... : ... .. . ... : ... .. . ...
ROW 23 : ... .. . ... : ... .. . ... : ... .. . ... : ... .. . ... : ... .. . ...
ROW 24 : ... .. . ... : G-3 .. . ... : G-2 .. . ... : C-# 04 . ... : ... .. . ...
ROW 25 : ... .. . ... : --- .. . ... : --- .. . ... : ... .. . ... : ... .. . ...
ROW 26 : C-4 1F . ... : F-2 .. . ... : D-1 1B . ... : 0-# 05 . ... : ... .. . ...
ROW 27 : ... .. . ... : ... .. . ... : F-1 37 . ... : ... .. . ... : ... .. . ...
ROW 28 : F-4 11 . ... : G-3 21 . ... : D-1 1C . ... : 9-# 1D . ... : ... .. . ...
ROW 29 : ... .. . ... : ... .. . ... : F-1 37 . ... : ... .. . ... : ... .. . ...
ROW 2A : C-4 11 . ... : F-3 1E . ... : F-2 .. . ... : ... .. . ... : ... .. . ...
ROW 2B : ... .. . ... : --- .. . ... : --- .. . ... : ... .. . ... : ... .. . ...
ROW 2C : D-4 20 . ... : A#2 .. . ... : D-1 1B . ... : C-# 02 . ... : ... .. . ...
ROW 2D : ... .. . ... : ... .. . ... : A#1 37 . ... : ... .. . ... : ... .. . ...
ROW 2E : ... .. . ... : F-3 21 . ... : ... .. . ... : ... .. . ... : ... .. . ...
ROW 2F : ... .. . ... : ... .. . ... : ... .. . ... : ... .. . ... : ... .. . ...
ROW 30 : ... .. . ... : A#3 1E . ... : A#2 .. . ... : C-# 04 . ... : ... .. . ...
ROW 31 : ... .. . ... : --- .. . ... : --- .. . ... : ... .. . ... : ... .. . ...
ROW 32 : C-4 1F . ... : A#3 .. . ... : A#2 .. . ... : 0-# 05 . ... : ... .. . ...
ROW 33 : ... .. . ... : --- .. . ... : --- .. . ... : ... .. . ... : ... .. . ...
ROW 34 : A#3 .. . ... : A#3 .. . ... : A#2 .. . ... : C-# 04 . ... : ... .. . ...
ROW 35 : ... .. . ... : --- .. . ... : --- .. . ... : ... .. . ... : ... .. . ...
ROW 36 : C-4 11 . ... : F-3 27 . ... : ... .. . ... : 0-# 05 . ... : ... .. . ...
ROW 37 : ... .. . ... : ... .. . ... : ... .. . ... : ... .. . ... : ... .. . ...
ROW 38 : A#3 1F . ... : A#3 1E . ... : D-1 1C . ... : 9-# 1D . ... : ... .. . ...
ROW 39 : ... .. . ... : ... .. . ... : A#2 37 . ... : ... .. . ... : ... .. . ...
ROW 3A : A-3 .. . ... : A#2 .. . ... : D-1 1B . ... : 0-# 05 . ... : ... .. . ...
ROW 3B : ... .. . ... : ... .. . ... : A#1 37 . ... : ... .. . ... : ... .. . ...
ROW 3C : A#3 11 . ... : A#3 21 . ... : --- .. . ... : C-# 04 . ... : ... .. . ...
ROW 3D : ... .. . ... : ... .. . ... : ... .. . ... : ... .. . ... : ... .. . ...
ROW 3E : A-3 11 . ... : A-3 1E . ... : A-2 .. . ... : 0-# 05 . ... : ... .. . ...
ROW 3F : ... .. . ... : --- .. . ... : --- .. . ... : ... .. . ... : ... .. . ...

PATTERN 05
ROW 00 : A#3 20 . ... : G-2 1E . ... : D-1 1B . ... : C-# 02 . ... : ... .. . ...
ROW 01 : ... .. . ... : ... .. . ... : G-1 37 . ... : ... .. . ... : ... .. . ...
ROW 02 : ... .. . ... : ... .. . ... : ... .. . ... : ... .. . ... : ... .. . ...
ROW 03 : ... .. . ... : ... .. . ... : ... .. . ... : ... .. . ... : ... .. . ...
ROW 04 : ... .. . ... : G-3 .. . ... : G-2 .. . ... : C-# 04 . ... : ... .. . ...
ROW 05 : ... .. . ... : --- .. . ... : --- .. . ... : ... .. . ... : ... .. . ...
ROW 06 : A-3 1F . ... : G-3 .. . ... : G-2 .. . ... : ... .. . ... : ... .. . ...
ROW 07 : ... .. . ... : --- .. . ... : --- .. . ... : ... .. . ... : ... .. . ...
ROW 08 : A#3 11 . ... : G-2 27 . ... : D-1 1C . ... : 9-# 1D . ... : ... .. . ...
ROW 09 : ... .. . ... : ... .. . ... : --- .. . ... : ... .. . ... : ... .. . ...
ROW 0A : A-3 11 . ... : G-3 1E . ... : G-2 37 . ... : ... .. . ... : ... .. . ...
ROW 0B : ... .. . ... : --- .. . ... : --- .. . ... : ... .. . ... : ... .. . ...
ROW 0C : A#3 20 . ... : G-2 .. . ... : D-1 1B . ... : C-# 04 . ... : ... .. . ...
ROW 0D : ... .. . ... : ... .. . ... : G-1 37 . ... : ... .. . ... : ... .. . ...
ROW 0E : ... .. . ... : ... .. . ... : ... .. . ... : 0-# 05 . ... : ... .. . ...
ROW 0F : ... .. . ... : ... .. . ... : ... .. . ... : ... .. . ... : ... .. . ...
ROW 10 : A-3 11 . ... : G-3 21 . ... : ... .. . ... : C-# 04 . ... : ... .. . ...
ROW 11 : ... .. . ... : ... .. . ... : ... .. . ... : ... .. . ... : ... .. . ...
ROW 12 : A#3 11 . ... : G-2 21 . ... : ... .. . ... : 0-# 05 . ... : ... .. . ...
ROW 13 : ... .. . ... : ... .. . ... : ... .. . ... : ... .. . ... : ... .. . ...
ROW 14 : C-4 1F . ... : G-3 1E . ... : D-1 1B . ... : C-# 04 . ... : ... .. . ...
ROW 15 : ... .. . ... : --- .. . ... : G-2 37 . ... : ... .. . ... : ... .. . ...
ROW 16 : A#3 .. . ... : F-3 .. . ... : F-2 .. . ... : 0-# 05 . ... : ... .. . ...
ROW 17 : ... .. . ... : --- .. . ... : --- .. . ... : ... .. . ... : ... .. . ...
ROW 18 : C-4 11 . ... : A#3 .. . ... : D-1 1C . ... : 9-# 1D . ... : ... .. . ...
ROW 19 : ... .. . ... : --- .. . ... : A#2 37 . ... : ... .. . ... : ... .. . ...
ROW 1A : A#3 11 . ... : F-3 .. . ... : F-2 .. . ... : ... .. . ... : ... .. . ...
ROW 1B : ... .. . ... : ... .. . ... : ... .. . ... : ... .. . ... : ... .. . ...
ROW 1C : C-4 20 . ... : --- .. . ... : --- .. . ... : C-# 04 . ... : ... .. . ...
ROW 1D : ... .. . ... : ... .. . ... : ... .. . ... : ... .. . ... : ... .. . ...
ROW 1E : ... .. . ... : A#3 21 . ... : ... .. . ... : ... .. . ... : ... .. . ...
ROW 1F : ... .. . ... : ... .. . ... : ... .. . ... : ... .. . ... : ... .. . ...
ROW 20 : D-4 1F . ... : F-2 1E . ... : D-1 1B . ... : C-# 02 . ... : ... .. . ...
ROW 21 : ... .. . ... : ... .. . ... : F-1 37 . ... : ... .. . ... : ... .. . ...
ROW 22 : C-4 .. . ... : F-3 21 . ... : ... .. . ... : ... .. . ... : ... .. . ...
ROW 23 : ... .. . ... : ... .. . ... : ... .. . ... : ... .. . ... : ... .. . ...
ROW 24 : D-4 .. . ... : F-3 1E . ... : F-2 .. . ... : C-# 04 . ... : ... .. . ...
ROW 25 : ... .. . ... : --- .. . ... : --- .. . ... : ... .. . ... : ... .. . ...
ROW 26 : F-4 .. . ... : G-2 .. . ... : D-1 1B . ... : 0-# 05 . ... : ... .. . ...
ROW 27 : ... .. . ... : ... .. . ... : G-1 37 . ... : ... .. . ... : ... .. . ...
ROW 28 : E-4 20 . ... : F-3 21 . ... : D-1 1C . ... : 9-# 1D . ... : ... .. . ...
ROW 29 : ... .. . ... : ... .. . ... : --- .. . ... : ... .. . ... : ... .. . ...
ROW 2A : F-4 1F . ... : G-3 1E . ... : G-2 37 . ... : ... .. . ... : ... .. . ...
ROW 2B : ... .. . ... : --- .. . ... : --- .. . ... : ... .. . ... : ... .. . ...
ROW 2C : D-4 20 . ... : D-2 .. . ... : D-1 1B . ... : C-# 02 . ... : ... .. . ...
ROW 2D : ... .. . ... : ... .. . ... : D-1 37 . ... : ... .. . ... : ... .. . ...
ROW 2E : ... .. . ... : G-3 21 . ... : ... .. . ... : ... .. . ... : ... .. . ...
ROW 2F : ... .. . ... : ... .. . ... : ... .. . ... : ... .. . ... : ... .. . ...
ROW 30 : F-4 11 . ... : D-3 1E . ... : D-2 .. . ... : C-# 04 . ... : ... .. . ...
ROW 31 : ... .. . ... : --- .. . ... : --- .. . ... : ... .. . ... : ... .. . ...
ROW 32 : D-4 11 . ... : D-3 .. . ... : D-2 .. . ... : 0-# 05 . ... : ... .. . ...
ROW 33 : ... .. . ... : --- .. . ... : --- .. . ... : ... .. . ... : ... .. . ...
ROW 34 : A-4 1F . ... : D-2 27 . ... : A-2 2B . ... : C-# 02 . ... : ... .. . ...
ROW 35 : ... .. . ... : ... .. . ... : ... .. . ... : ... .. . ... : ... .. . ...
ROW 36 : ... .. . ... : D-3 1E . ... : G-2 2B . ... : E-# 05 . ... : ... .. . ...
ROW 37 : ... .. . ... : --- .. . ... : D-2 37 . ... : ... .. . ... : ... .. . ...
ROW 38 : G-4 .. . ... : D-3 27 . ... : D-1 1C . ... : 9-# 1D . ... : ... .. . ...
ROW 39 : F-4 .. . ... : ... .. . ... : --- .. . ... : ... .. . ... : ... .. . ...
ROW 3A : G-4 .. . ... : C-3 1E . ... : F-2 2B . ... : C-# 02 . ... : ... .. . ...
ROW 3B : F-4 .. . ... : ... .. . ... : C-2 37 . ... : ... .. . ... : ... .. . ...
ROW 3C : D-4 .. . ... : D-3 21 . ... : D-1 1B . ... : B-# 04 . ... : ... .. . ...
ROW 3D : C-4 .. . ... : ... .. . ... : --- .. . ... : ... .. . ... : ... .. . ...
ROW 3E : A#3 .. . ... : G-3 1E . ... : G-2 37 . ... : 0-# 05 . ... : ... .. . ...
ROW 3F : C-4 .. . ... : --- .. . ... : --- .. . ... : ... .. . ... : ... .. . ...

PATTERN 06
ROW 00 : D-4 20 . ... : D-3 1E . ... : D-1 1B . ... : C-# 02 . ... : ... .. . ...
ROW 01 : ... .. . ... : ... .. . ... : D-2 37 . ... : ... .. . ... : ... .. . ...
ROW 02 : ... .. . ... : ... .. . ... : ... .. . ... : ... .. . ... : ... .. . ...
ROW 03 : ... .. . ... : ... .. . ... : ... .. . ... : ... .. . ... : ... .. . ...
ROW 04 : ... .. . ... : D-4 .. . ... : D-3 .. . ... : C-# 04 . ... : ... .. . ...
ROW 05 : ... .. . ... : --- .. . ... : --- .. . ... : ... .. . ... : ... .. . ...
ROW 06 : F-4 1F . ... : D-4 .. . ... : D-3 .. . ... : ... .. . ... : ... .. . ...
ROW 07 : ... .. . ... : --- .. . ... : --- .. . ... : ... .. . ... : ... .. . ...
ROW 08 : D-4 11 . ... : D-3 21 . ... : D-1 1C . ... : 9-# 1D . ... : ... .. . ...
ROW 09 : ... .. . ... : ... .. . ... : --- .. . ... : ... .. . ... : ... .. . ...
ROW 0A : F-4 11 . ... : D-4 1E . ... : D-3 37 . ... : ... .. . ... : ... .. . ...
ROW 0B : ... .. . ... : --- .. . ... : --- .. . ... : ... .. . ... : ... .. . ...
ROW 0C : G-4 20 . ... : C-3 .. . ... : D-1 1B . ... : C-# 04 . ... : ... .. . ...
ROW 0D : ... .. . ... : ... .. . ... : C-2 37 . ... : ... .. . ... : ... .. . ...
ROW 0E : ... .. . ... : ... .. . ... : ... .. . ... : 0-# 05 . ... : ... .. . ...
ROW 0F : ... .. . ... : ... .. . ... : ... .. . ... : ... .. . ... : ... .. . ...
ROW 10 : F-4 11 . ... : D-4 21 . ... : ... .. . ... : C-# 04 . ... : ... .. . ...
ROW 11 : ... .. . ... : ... .. . ... : ... .. . ... : ... .. . ... : ... .. . ...
ROW 12 : G-4 11 . ... : C-3 21 . ... : ... .. . ... : 0-# 05 . ... : ... .. . ...
ROW 13 : ... .. . ... : ... .. . ... : ... .. . ... : ... .. . ... : ... .. . ...
ROW 14 : F-4 1F . ... : C-4 1E . ... : D-1 1B . ... : C-# 04 . ... : ... .. . ...
ROW 15 : ... .. . ... : --- .. . ... : C-3 04 . ... : ... .. . ... : ... .. . ...
ROW 16 : E-4 .. . ... : C-4 .. . ... : C-3 37 . ... : 0-# 05 . ... : ... .. . ...
ROW 17 : ... .. . ... : --- .. . ... : --- .. . ... : ... .. . ... : ... .. . ...
ROW 18 : F-4 20 . ... : C-3 27 . ... : D-1 1C . ... : 9-# 1D . ... : ... .. . ...
ROW 19 : ... .. . ... : ... .. . ... : --- .. . ... : ... .. . ... : ... .. . ...
ROW 1A : D-4 1F . ... : C-4 1E . ... : C-3 37 . ... : ... .. . ... : ... .. . ...
ROW 1B : ... .. . ... : --- .. . ... : --- .. . ... : ... .. . ... : ... .. . ...
ROW 1C : ... .. . ... : G-3 .. . ... : G-2 .. . ... : C-# 04 . ... : ... .. . ...
ROW 1D : ... .. . ... : ... .. . ... : ... .. . ... : ... .. . ... : ... .. . ...
ROW 1E : F-4 11 . ... : C-4 21 . ... : ... .. . ... : ... .. . ... : ... .. . ...
ROW 1F : ... .. . ... : ... .. . ... : ... .. . ... : ... .. . ... : ... .. . ...
ROW 20 : C-4 20 . ... : F-3 1E . ... : D-1 1B . ... : C-# 02 . ... : ... .. . ...
ROW 21 : ... .. . ... : ... .. . ... : F-2 37 . ... : ... .. . ... : ... .. . ...
ROW 22 : ... .. . ... : G-3 21 . ... : ... .. . ... : ... .. . ... : ... .. . ...
ROW 23 : ... .. . ... : ... .. . ... : ... .. . ... : ... .. . ... : ... .. . ...
ROW 24 : ... .. . ... : F-4 1E . ... : F-3 .. . ... : C-# 04 . ... : ... .. . ...
ROW 25 : ... .. . ... : --- .. . ... : --- .. . ... : ... .. . ... : ... .. . ...
ROW 26 : F-4 1F . ... : G-3 .. . ... : D-1 1B . ... : 0-# 05 . ... : ... .. . ...
ROW 27 : ... .. . ... : ... .. . ... : G-2 37 . ... : ... .. . ... : ... .. . ...
ROW 28 : C-4 11 . ... : F-4 21 . ... : D-1 1C . ... : 9-# 1D . ... : ... .. . ...
ROW 29 : ... .. . ... : ... .. . ... : G-2 37 . ... : ... .. . ... : ... .. . ...
ROW 2A : F-4 11 . ... : G-4 1E . ... : G-3 .. . ... : ... .. . ... : ... .. . ...
ROW 2B : ... .. . ... : --- .. . ... : --- .. . ... : ... .. . ... : ... .. . ...
ROW 2C : D-4 20 . ... : D-3 .. . ... : D-1 1B . ... : C-# 02 . ... : ... .. . ...
ROW 2D : ... .. . ... : ... .. . ... : D-2 37 . ... : ... .. . ... : ... .. . ...
ROW 2E : ... .. . ... : G-4 21 . ... : ... .. . ... : 9-# 1D . ... : ... .. . ...
ROW 2F : ... .. . ... : ... .. . ... : ... .. . ... : ... .. . ... : ... .. . ...
ROW 30 : F-4 11 . ... : A-3 1E . ... : A-2 .. . ... : 9-# 1D . ... : ... .. . ...
ROW 31 : ... .. . ... : --- .. . ... : --- .. . ... : ... .. . ... : ... .. . ...
ROW 32 : D-4 11 . ... : D-4 .. . ... : D-3 .. . ... : 0-# 05 . ... : ... .. . ...
ROW 33 : ... .. . ... : --- .. . ... : --- .. . ... : ... .. . ... : ... .. . ...
ROW 34 : A-3 1F . ... : D-4 .. . ... : D-3 .. . ... : B-# 04 . ... : ... .. . ...
ROW 35 : ... .. . ... : --- .. . ... : --- .. . ... : ... .. . ... : ... .. . ...
ROW 36 : G-3 .. . ... : A-3 21 . ... : ... .. . ... : E-# 05 . ... : ... .. . ...
ROW 37 : ... .. . ... : ... .. . ... : ... .. . ... : ... .. . ... : ... .. . ...
ROW 38 : A-3 20 . ... : D-4 1E . ... : D-1 1C . ... : 9-# 1D . ... : ... .. . ...
ROW 39 : ... .. . ... : --- .. . ... : D-3 37 . ... : ... .. . ... : ... .. . ...
ROW 3A : G-3 1F . ... : D-3 .. . ... : D-1 1B . ... : C-# 02 . ... : ... .. . ...
ROW 3B : ... .. . ... : ... .. . ... : D-2 37 . ... : ... .. . ... : ... .. . ...
ROW 3C : F-3 .. . ... : D-4 21 . ... : --- .. . ... : B-# 04 . ... : ... .. . ...
ROW 3D : ... .. . ... : ... .. . ... : ... .. . ... : ... .. . ... : ... .. . ...
ROW 3E : G-3 .. . ... : D-4 1E . ... : D-3 .. . ... : 0-# 05 . ... : ... .. . ...
ROW 3F : ... .. . ... : --- .. . ... : --- .. . ... : ... .. . ... : ... .. . ...

PATTERN 07
ROW 00 : A-3 20 . ... : A-2 1E . ... : D-1 1B . ... : C-# 02 . ... : ... .. . ...
ROW 01 : ... .. . ... : ... .. . ... : A-1 37 . ... : ... .. . ... : ... .. . ...
ROW 02 : ... .. . ... : ... .. . ... : ... .. . ... : ... .. . ... : ... .. . ...
ROW 03 : ... .. . ... : ... .. . ... : ... .. . ... : ... .. . ... : ... .. . ...
ROW 04 : ... .. . ... : A-3 .. . ... : A-2 .. . ... : C-# 04 . ... : ... .. . ...
ROW 05 : ... .. . ... : --- .. . ... : --- .. . ... : ... .. . ... : ... .. . ...
ROW 06 : G-3 1F . ... : A-3 .. . ... : A-2 .. . ... : 0-# 05 . ... : ... .. . ...
ROW 07 : ... .. . ... : --- .. . ... : --- .. . ... : ... .. . ... : ... .. . ...
ROW 08 : A-3 11 . ... : A-3 21 . ... : D-1 1C . ... : 9-# 1D . ... : ... .. . ...
ROW 09 : ... .. . ... : ... .. . ... : --- .. . ... : ... .. . ... : ... .. . ...
ROW 0A : G-3 11 . ... : A-3 1E . ... : A-2 37 . ... : ... .. . ... : ... .. . ...
ROW 0B : ... .. . ... : --- .. . ... : --- .. . ... : ... .. . ... : ... .. . ...
ROW 0C : C-4 20 . ... : G-2 .. . ... : D-1 1B . ... : C-# 02 . ... : ... .. . ...
ROW 0D : ... .. . ... : ... .. . ... : G-1 37 . ... : ... .. . ... : ... .. . ...
ROW 0E : ... .. . ... : A-3 21 . ... : ... .. . ... : ... .. . ... : ... .. . ...
ROW 0F : ... .. . ... : ... .. . ... : ... .. . ... : ... .. . ... : ... .. . ...
ROW 10 : D-4 1F . ... : D-4 1E . ... : D-3 .. . ... : ... .. . ... : ... .. . ...
ROW 11 : ... .. . ... : --- .. . ... : --- .. . ... : ... .. . ... : ... .. . ...
ROW 12 : C-4 .. . ... : C-4 .. . ... : C-3 .. . ... : ... .. . ... : ... .. . ...
ROW 13 : ... .. . ... : --- .. . ... : --- .. . ... : ... .. . ... : ... .. . ...
ROW 14 : D-4 20 . ... : G-3 .. . ... : G-2 .. . ... : ... .. . ... : ... .. . ...
ROW 15 : ... .. . ... : --- .. . ... : --- .. . ... : ... .. . ... : ... .. . ...
ROW 16 : F-4 1F . ... : F-3 .. . ... : F-2 .. . ... : ... .. . ... : ... .. . ...
ROW 17 : ... .. . ... : --- .. . ... : --- .. . ... : ... .. . ... : ... .. . ...
ROW 18 : E-4 .. . ... : A#3 .. . ... : D-1 1C . ... : ... .. . ... : ... .. . ...
ROW 19 : ... .. . ... : --- .. . ... : A-2 37 . ... : ... .. . ... : ... .. . ...
ROW 1A : F-4 .. . ... : F-3 .. . ... : F-2 .. . ... : ... .. . ... : ... .. . ...
ROW 1B : ... .. . ... : ... .. . ... : ... .. . ... : ... .. . ... : ... .. . ...
ROW 1C : D-4 20 . ... : --- .. . ... : --- .. . ... : ... .. . ... : ... .. . ...
ROW 1D : ... .. . ... : ... .. . ... : ... .. . ... : ... .. . ... : ... .. . ...
ROW 1E : F-4 11 . ... : A#3 21 . ... : ... .. . ... : ... .. . ... : ... .. . ...
ROW 1F : ... .. . ... : ... .. . ... : ... .. . ... : ... .. . ... : ... .. . ...
ROW 20 : A-4 1F . ... : F-2 1E . ... : D-1 1B . ... : C-# 02 . ... : ... .. . ...
ROW 21 : ... .. . ... : ... .. . ... : F-1 37 . ... : ... .. . ... : ... .. . ...
ROW 22 : G-4 .. . ... : F-3 21 . ... : ... .. . ... : ... .. . ... : ... .. . ...
ROW 23 : ... .. . ... : ... .. . ... : ... .. . ... : ... .. . ... : ... .. . ...
ROW 24 : F-4 .. . ... : F-3 1E . ... : F-2 .. . ... : ... .. . ... : ... .. . ...
ROW 25 : ... .. . ... : --- .. . ... : --- .. . ... : ... .. . ... : ... .. . ...
ROW 26 : G-4 20 . ... : G-2 .. . ... : D-1 1B . ... : 0-# 05 . ... : ... .. . ...
ROW 27 : ... .. . ... : ... .. . ... : G-1 37 . ... : ... .. . ... : ... .. . ...
ROW 28 : ... .. . ... : F-3 21 . ... : D-1 1C . ... : 9-# 1D . ... : ... .. . ...
ROW 29 : ... .. . ... : ... .. . ... : --- .. . ... : ... .. . ... : ... .. . ...
ROW 2A : F-4 1F . ... : G-3 1E . ... : G-2 37 . ... : ... .. . ... : ... .. . ...
ROW 2B : ... .. . ... : --- .. . ... : --- .. . ... : ... .. . ... : ... .. . ...
ROW 2C : E-4 .. . ... : D-2 .. . ... : D-1 1B . ... : C-# 02 . ... : ... .. . ...
ROW 2D : ... .. . ... : ... .. . ... : D-1 37 . ... : ... .. . ... : ... .. . ...
ROW 2E : C-4 .. . ... : G-3 21 . ... : D-1 1C . ... : ... .. . ... : ... .. . ...
ROW 2F : ... .. . ... : ... .. . ... : D-1 37 . ... : ... .. . ... : ... .. . ...
ROW 30 : D-4 .. . ... : D-3 1E . ... : D-1 1C . ... : ... .. . ... : ... .. . ...
ROW 31 : ... .. . ... : --- 1E . ... : D-2 37 . ... : ... .. . ... : ... .. . ...
ROW 32 : C-4 11 . ... : D-3 .. . ... : D-1 1B . ... : ... .. . ... : ... .. . ...
ROW 33 : ... .. . ... : --- .. . ... : D-2 37 . ... : ... .. . ... : ... .. . ...
ROW 34 : D-4 11 . ... : D-2 27 . ... : A-2 2B . ... : ... .. . ... : ... .. . ...
ROW 35 : ... .. . ... : ... .. . ... : ... .. . ... : ... .. . ... : ... .. . ...
ROW 36 : F-4 20 . ... : D-3 1E . ... : G#2 2B . ... : ... .. . ... : ... .. . ...
ROW 37 : ... .. . ... : --- .. . ... : D-2 37 . ... : ... .. . ... : ... .. . ...
ROW 38 : ... .. . ... : D-3 27 . ... : D-1 1C . ... : ... .. . ... : ... .. . ...
ROW 39 : ... .. . ... : ... .. . ... : --- .. . ... : ... .. . ... : ... .. . ...
ROW 3A : D-4 11 . ... : C-3 1E . ... : G-2 2B . ... : ... .. . ... : ... .. . ...
ROW 3B : ... .. . ... : ... .. . ... : C-2 37 . ... : ... .. . ... : ... .. . ...
ROW 3C : D-4 1F . ... : D-3 21 . ... : D-1 1B . ... : ... .. . ... : ... .. . ...
ROW 3D : ... .. . ... : ... .. . ... : --- .. . ... : ... .. . ... : ... .. . ...
ROW 3E : F-4 11 . ... : G-3 1E . ... : F#2 2B . ... : ... .. . ... : ... .. . ...
ROW 3F : ... .. . ... : --- .. . ... : G-2 37 . ... : ... .. . ... : ... .. . ...

PATTERN 08
ROW 00 : A-4 10 . ... : ... .. . ... : D-1 1B . ... : C-# 02 . ... : ... .. . ...
ROW 01 : ... .. . ... : ... .. . ... : G-1 37 . ... : ... .. . ... : ... .. . ...
ROW 02 : ... .. . ... : ... .. . ... : ... .. . ... : ... .. . ... : ... .. . ...
ROW 03 : ... .. . ... : ... .. . ... : ... .. . ... : ... .. . ... : ... .. . ...
ROW 04 : ... .. . ... : ... .. . ... : G-2 .. . ... : C-# 04 . ... : ... .. . ...
ROW 05 : ... .. . ... : ... .. . ... : --- .. . ... : ... .. . ... : ... .. . ...
ROW 06 : ... .. . ... : ... .. . ... : D-1 1B . ... : 0-# 05 . ... : ... .. . ...
ROW 07 : ... .. . ... : ... .. . ... : G-2 04 . ... : ... .. . ... : ... .. . ...
ROW 08 : A-4 23 . ... : ... .. . ... : D-1 1C . ... : 9-# 1D . ... : ... .. . ...
ROW 09 : ... .. . ... : ... .. . ... : --- .. . ... : ... .. . ... : ... .. . ...
ROW 0A : ... .. . ... : ... .. . ... : G-2 37 . ... : ... .. . ... : ... .. . ...
ROW 0B : ... .. . ... : ... .. . ... : --- .. . ... : ... .. . ... : ... .. . ...
ROW 0C : C-5 0F . ... : ... .. . ... : D-1 1B . ... : C-# 02 . ... : ... .. . ...
ROW 0D : ... .. . ... : ... .. . ... : C-2 37 . ... : ... .. . ... : ... .. . ...
ROW 0E : A-4 .. . ... : ... .. . ... : --- .. . ... : ... .. . ... : ... .. . ...
ROW 0F : ... .. . ... : ... .. . ... : ... .. . ... : ... .. . ... : ... .. . ...
ROW 10 : G-4 10 . ... : ... .. . ... : ... .. . ... : C-# 04 . ... : ... .. . ...
ROW 11 : ... .. . ... : ... .. . ... : ... .. . ... : ... .. . ... : ... .. . ...
ROW 12 : A-4 0F . ... : ... .. . ... : ... .. . ... : 0-# 05 . ... : ... .. . ...
ROW 13 : ... .. . ... : ... .. . ... : ... .. . ... : ... .. . ... : ... .. . ...
ROW 14 : C-5 10 . ... : ... .. . ... : ... .. . ... : C-# 04 . ... : ... .. . ...
ROW 15 : ... .. . ... : ... .. . ... : ... .. . ... : ... .. . ... : ... .. . ...
ROW 16 : ... .. . ... : ... .. . ... : ... .. . ... : 0-# 05 . ... : ... .. . ...
ROW 17 : ... .. . ... : ... .. . ... : ... .. . ... : ... .. . ... : ... .. . ...
ROW 18 : ... .. . ... : ... .. . ... : ... .. . ... : 9-# 1D . ... : ... .. . ...
ROW 19 : ... .. . ... : ... .. . ... : ... .. . ... : ... .. . ... : ... .. . ...
ROW 1A : G-4 22 . ... : ... .. . ... : ... .. . ... : ... .. . ... : ... .. . ...
ROW 1B : ... .. . ... : ... .. . ... : ... .. . ... : ... .. . ... : ... .. . ...
ROW 1C : A-4 0F . ... : ... .. . ... : ... .. . ... : C-# 04 . ... : ... .. . ...
ROW 1D : ... .. . ... : ... .. . ... : ... .. . ... : ... .. . ... : ... .. . ...
ROW 1E : C-5 22 . ... : ... .. . ... : ... .. . ... : ... .. . ... : ... .. . ...
ROW 1F : ... .. . ... : ... .. . ... : ... .. . ... : ... .. . ... : ... .. . ...
ROW 20 : A#4 0F . ... : ... .. . ... : D-1 1B . ... : C-# 02 . ... : ... .. . ...
ROW 21 : ... .. . ... : ... .. . ... : F-1 37 . ... : ... .. . ... : ... .. . ...
ROW 22 : A-4 .. . ... : ... .. . ... : ... .. . ... : ... .. . ... : ... .. . ...
ROW 23 : ... .. . ... : ... .. . ... : ... .. . ... : ... .. . ... : ... .. . ...
ROW 24 : F-4 .. . ... : ... .. . ... : F-2 .. . ... : C-# 04 . ... : ... .. . ...
ROW 25 : ... .. . ... : ... .. . ... : --- .. . ... : ... .. . ... : ... .. . ...
ROW 26 : G-4 10 . ... : ... .. . ... : D-1 1B . ... : 0-# 05 . ... : ... .. . ...
ROW 27 : ... .. . ... : ... .. . ... : F-1 37 . ... : ... .. . ... : ... .. . ...
ROW 28 : F-4 0F . ... : ... .. . ... : D-1 1C . ... : 9-# 1D . ... : ... .. . ...
ROW 29 : ... .. . ... : ... .. . ... : --- .. . ... : ... .. . ... : ... .. . ...
ROW 2A : D-4 .. . ... : ... .. . ... : F-2 37 . ... : ... .. . ... : ... .. . ...
ROW 2B : ... .. . ... : ... .. . ... : --- .. . ... : ... .. . ... : ... .. . ...
ROW 2C : G-4 .. . ... : ... .. . ... : D-1 1B . ... : C-# 02 . ... : ... .. . ...
ROW 2D : G#4 .. . ... : ... .. . ... : A#1 37 . ... : ... .. . ... : ... .. . ...
ROW 2E : ... .. . ... : ... .. . ... : --- .. . ... : ... .. . ... : ... .. . ...
ROW 2F : ... .. . ... : ... .. . ... : ... .. . ... : ... .. . ... : ... .. . ...
ROW 30 : G-4 .. . ... : ... .. . ... : ... .. . ... : C-# 04 . ... : ... .. . ...
ROW 31 : ... .. . ... : ... .. . ... : ... .. . ... : ... .. . ... : ... .. . ...
ROW 32 : D-4 .. . ... : ... .. . ... : ... .. . ... : 0-# 05 . ... : ... .. . ...
ROW 33 : ... .. . ... : ... .. . ... : ... .. . ... : ... .. . ... : ... .. . ...
ROW 34 : G-4 22 . ... : ... .. . ... : ... .. . ... : C-# 02 . ... : ... .. . ...
ROW 35 : ... .. . ... : ... .. . ... : ... .. . ... : ... .. . ... : ... .. . ...
ROW 36 : F-4 0F . ... : ... .. . ... : ... .. . ... : 0-# 05 . ... : ... .. . ...
ROW 37 : ... .. . ... : ... .. . ... : ... .. . ... : ... .. . ... : ... .. . ...
ROW 38 : D-4 22 . ... : ... .. . ... : ... .. . ... : 9-# 1D . ... : ... .. . ...
ROW 39 : ... .. . ... : ... .. . ... : ... .. . ... : ... .. . ... : ... .. . ...
ROW 3A : G-4 0F . ... : ... .. . ... : ... .. . ... : 0-# 05 . ... : ... .. . ...
ROW 3B : ... .. . ... : ... .. . ... : ... .. . ... : ... .. . ... : ... .. . ...
ROW 3C : F-4 22 . ... : ... .. . ... : ... .. . ... : C-# 02 . ... : ... .. . ...
ROW 3D : ... .. . ... : ... .. . ... : ... .. . ... : ... .. . ... : ... .. . ...
ROW 3E : D-4 0F . ... : ... .. . ... : ... .. . ... : 0-# 05 . ... : ... .. . ...
ROW 3F : ... .. . ... : ... .. . ... : ... .. . ... : ... .. . ... : ... .. . ...

PATTERN 09
ROW 00 : F-4 10 . ... : ... .. . ... : D-1 1B . ... : C-# 02 . ... : ... .. . ...
ROW 01 : ... .. . ... : ... .. . ... : E-1 37 . ... : ... .. . ... : ... .. . ...
ROW 02 : D-4 0F . ... : ... .. . ... : ... .. . ... : ... .. . ... : ... .. . ...
ROW 03 : ... .. . ... : ... .. . ... : ... .. . ... : ... .. . ... : ... .. . ...
ROW 04 : F-4 23 . ... : ... .. . ... : E-2 .. . ... : C-# 04 . ... : ... .. . ...
ROW 05 : ... .. . ... : ... .. . ... : --- .. . ... : ... .. . ... : ... .. . ...
ROW 06 : F-4 0F . ... : ... .. . ... : D-1 1B . ... : 0-# 05 . ... : ... .. . ...
ROW 07 : ... .. . ... : ... .. . ... : E-2 37 . ... : ... .. . ... : ... .. . ...
ROW 08 : D-4 22 . ... : ... .. . ... : D-1 1C . ... : 9-# 1D . ... : ... .. . ...
ROW 09 : ... .. . ... : ... .. . ... : --- .. . ... : ... .. . ... : ... .. . ...
ROW 0A : G-4 0F . ... : ... .. . ... : E-2 37 . ... : ... .. . ... : ... .. . ...
ROW 0B : ... .. . ... : ... .. . ... : --- .. . ... : ... .. . ... : ... .. . ...
ROW 0C : F-4 22 . ... : ... .. . ... : D-1 1B . ... : C-# 02 . ... : ... .. . ...
ROW 0D : ... .. . ... : ... .. . ... : A-1 37 . ... : ... .. . ... : ... .. . ...
ROW 0E : G#4 10 . ... : ... .. . ... : ... .. . ... : ... .. . ... : ... .. . ...
ROW 0F : ... .. . ... : ... .. . ... : ... .. . ... : ... .. . ... : ... .. . ...
ROW 10 : ... .. . ... : ... .. . ... : ... .. . ... : C-# 04 . ... : ... .. . ...
ROW 11 : ... .. . ... : ... .. . ... : --- .. . ... : ... .. . ... : ... .. . ...
ROW 12 : G-4 23 . ... : ... .. . ... : A-2 .. . ... : 0-# 05 . ... : ... .. . ...
ROW 13 : ... .. . ... : ... .. . ... : --- .. . ... : ... .. . ... : ... .. . ...
ROW 14 : G-4 0F . ... : ... .. . ... : D-1 1B . ... : C-# 04 . ... : ... .. . ...
ROW 15 : ... .. . ... : ... .. . ... : G-2 04 . ... : ... .. . ... : ... .. . ...
ROW 16 : D-4 .. . ... : ... .. . ... : G-2 37 . ... : 0-# 05 . ... : ... .. . ...
ROW 17 : ... .. . ... : ... .. . ... : --- .. . ... : ... .. . ... : ... .. . ...
ROW 18 : F-4 10 . ... : ... .. . ... : D-1 1C . ... : 9-# 1D . ... : ... .. . ...
ROW 19 : ... .. . ... : ... .. . ... : A-2 37 . ... : ... .. . ... : ... .. . ...
ROW 1A : G-4 0F . ... : ... .. . ... : E-2 .. . ... : 0-# 05 . ... : ... .. . ...
ROW 1B : ... .. . ... : ... .. . ... : ... .. . ... : ... .. . ... : ... .. . ...
ROW 1C : ... .. . ... : ... .. . ... : --- .. . ... : C-# 04 . ... : ... .. . ...
ROW 1D : ... .. . ... : ... .. . ... : ... .. . ... : ... .. . ... : ... .. . ...
ROW 1E : F-4 23 . ... : ... .. . ... : ... .. . ... : ... .. . ... : ... .. . ...
ROW 1F : ... .. . ... : ... .. . ... : ... .. . ... : ... .. . ... : ... .. . ...
ROW 20 : F-4 0F . ... : ... .. . ... : D-1 1B . ... : C-# 02 . ... : ... .. . ...
ROW 21 : ... .. . ... : ... .. . ... : F-1 37 . ... : ... .. . ... : ... .. . ...
ROW 22 : D-4 .. . ... : ... .. . ... : ... .. . ... : ... .. . ... : ... .. . ...
ROW 23 : ... .. . ... : ... .. . ... : ... .. . ... : ... .. . ... : ... .. . ...
ROW 24 : F-4 23 . ... : ... .. . ... : F-2 .. . ... : C-# 04 . ... : ... .. . ...
ROW 25 : ... .. . ... : ... .. . ... : --- .. . ... : ... .. . ... : ... .. . ...
ROW 26 : D-4 10 . ... : ... .. . ... : D-1 1B . ... : 0-# 05 . ... : ... .. . ...
ROW 27 : ... .. . ... : ... .. . ... : G-1 37 . ... : ... .. . ... : ... .. . ...
ROW 28 : ... .. . ... : ... .. . ... : D-1 1C . ... : 9-# 1D . ... : ... .. . ...
ROW 29 : ... .. . ... : ... .. . ... : --- .. . ... : ... .. . ... : ... .. . ...
ROW 2A : C-4 0F . ... : ... .. . ... : G-2 37 . ... : ... .. . ... : ... .. . ...
ROW 2B : ... .. . ... : ... .. . ... : --- .. . ... : ... .. . ... : ... .. . ...
ROW 2C : D-4 23 . ... : ... .. . ... : D-1 1B . ... : C-# 02 . ... : ... .. . ...
ROW 2D : ... .. . ... : ... .. . ... : D-1 37 . ... : ... .. . ... : ... .. . ...
ROW 2E : D-4 10 . ... : ... .. . ... : ... .. . ... : ... .. . ... : ... .. . ...
ROW 2F : ... .. . ... : ... .. . ... : ... .. . ... : ... .. . ... : ... .. . ...
ROW 30 : ... .. . ... : ... .. . ... : D-2 .. . ... : C-# 04 . ... : ... .. . ...
ROW 31 : ... .. . ... : ... .. . ... : --- .. . ... : ... .. . ... : ... .. . ...
ROW 32 : C-4 23 . ... : ... .. . ... : D-2 .. . ... : 0-# 05 . ... : ... .. . ...
ROW 33 : ... .. . ... : ... .. . ... : --- .. . ... : ... .. . ... : ... .. . ...
ROW 34 : D-5 0F . ... : ... .. . ... : A-2 2B . ... : C-# 04 . ... : ... .. . ...
ROW 35 : ... .. . ... : ... .. . ... : ... .. . ... : ... .. . ... : ... .. . ...
ROW 36 : C-5 .. . ... : ... .. . ... : G#2 2B . ... : 0-# 05 . ... : ... .. . ...
ROW 37 : ... .. . ... : ... .. . ... : D-2 04 . ... : ... .. . ... : ... .. . ...
ROW 38 : A-4 10 . ... : ... .. . ... : D-1 1C . ... : 9-# 1D . ... : ... .. . ...
ROW 39 : ... .. . ... : ... .. . ... : --- .. . ... : ... .. . ... : ... .. . ...
ROW 3A : C-5 0F . ... : ... .. . ... : F-2 2B . ... : 0-# 05 . ... : ... .. . ...
ROW 3B : ... .. . ... : ... .. . ... : C-2 37 . ... : ... .. . ... : ... .. . ...
ROW 3C : A-4 .. . ... : ... .. . ... : D-1 1B . ... : C-# 04 . ... : ... .. . ...
ROW 3D : ... .. . ... : ... .. . ... : --- .. . ... : ... .. . ... : ... .. . ...
ROW 3E : G-4 10 . ... : ... .. . ... : G-2 37 . ... : 0-# 05 . ... : ... .. . ...
ROW 3F : ... .. . ... : ... .. . ... : --- .. . ... : ... .. . ... : ... .. . ...

PATTERN 0A
ROW 00 : G#4 0F . ... : ... .. . ... : D-1 1B . ... : C-# 02 . ... : ... .. . ...
ROW 01 : A-4 .. . ... : ... .. . ... : G-1 37 . ... : ... .. . ... : ... .. . ...
ROW 02 : ... .. . ... : ... .. . ... : ... .. . ... : ... .. . ... : ... .. . ...
ROW 03 : ... .. . ... : ... .. . ... : ... .. . ... : ... .. . ... : ... .. . ...
ROW 04 : G#4 .. . ... : ... .. . ... : G-2 .. . ... : C-# 04 . ... : ... .. . ...
ROW 05 : ... .. . ... : ... .. . ... : --- .. . ... : ... .. . ... : ... .. . ...
ROW 06 : A-4 .. . ... : ... .. . ... : G-2 .. . ... : 0-# 05 . ... : ... .. . ...
ROW 07 : ... .. . ... : ... .. . ... : --- .. . ... : ... .. . ... : ... .. . ...
ROW 08 : G#4 22 . ... : ... .. . ... : D-1 1C . ... : 9-# 1D . ... : ... .. . ...
ROW 09 : ... .. . ... : ... .. . ... : --- .. . ... : ... .. . ... : ... .. . ...
ROW 0A : G-4 0F . ... : ... .. . ... : G-2 37 . ... : ... .. . ... : ... .. . ...
ROW 0B : ... .. . ... : ... .. . ... : --- .. . ... : ... .. . ... : ... .. . ...
ROW 0C : A-4 10 . ... : ... .. . ... : D-1 1B . ... : C-# 02 . ... : ... .. . ...
ROW 0D : ... .. . ... : ... .. . ... : C-2 37 . ... : ... .. . ... : ... .. . ...
ROW 0E : ... .. . ... : ... .. . ... : ... .. . ... : ... .. . ... : ... .. . ...
ROW 0F : ... .. . ... : ... .. . ... : ... .. . ... : ... .. . ... : ... .. . ...
ROW 10 : C-5 0F . ... : ... .. . ... : ... .. . ... : C-# 04 . ... : ... .. . ...
ROW 11 : ... .. . ... : ... .. . ... : --- .. . ... : ... .. . ... : ... .. . ...
ROW 12 : A-4 .. . ... : ... .. . ... : C-2 37 . ... : 0-# 05 . ... : ... .. . ...
ROW 13 : ... .. . ... : ... .. . ... : --- .. . ... : ... .. . ... : ... .. . ...
ROW 14 : C-5 22 . ... : ... .. . ... : D-1 1B . ... : C-# 04 . ... : ... .. . ...
ROW 15 : ... .. . ... : ... .. . ... : C-3 04 . ... : ... .. . ... : ... .. . ...
ROW 16 : G-4 0F . ... : ... .. . ... : C-3 37 . ... : 0-# 05 . ... : ... .. . ...
ROW 17 : ... .. . ... : ... .. . ... : --- .. . ... : ... .. . ... : ... .. . ...
ROW 18 : A-4 10 . ... : ... .. . ... : D-1 1C . ... : 9-# 1D . ... : ... .. . ...
ROW 19 : ... .. . ... : ... .. . ... : --- .. . ... : ... .. . ... : ... .. . ...
ROW 1A : D-5 0F . ... : ... .. . ... : C-3 37 . ... : ... .. . ... : ... .. . ...
ROW 1B : ... .. . ... : ... .. . ... : --- .. . ... : ... .. . ... : ... .. . ...
ROW 1C : C-5 0F . ... : ... .. . ... : C-3 .. . ... : C-# 04 . ... : ... .. . ...
ROW 1D : ... .. . ... : ... .. . ... : ... .. . ... : ... .. . ... : ... .. . ...
ROW 1E : G-4 0F . ... : ... .. . ... : ... .. . ... : ... .. . ... : ... .. . ...
ROW 1F : ... .. . ... : ... .. . ... : ... .. . ... : ... .. . ... : ... .. . ...
ROW 20 : A-4 10 . ... : ... .. . ... : D-1 1B . ... : C-# 02 . ... : ... .. . ...
ROW 21 : ... .. . ... : ... .. . ... : F-1 37 . ... : ... .. . ... : ... .. . ...
ROW 22 : G-4 23 . ... : ... .. . ... : ... .. . ... : ... .. . ... : ... .. . ...
ROW 23 : ... .. . ... : ... .. . ... : ... .. . ... : ... .. . ... : ... .. . ...
ROW 24 : G-4 0F . ... : ... .. . ... : F-2 .. . ... : C-# 04 . ... : ... .. . ...
ROW 25 : ... .. . ... : ... .. . ... : --- .. . ... : ... .. . ... : ... .. . ...
ROW 26 : A-4 .. . ... : ... .. . ... : D-1 1B . ... : 0-# 05 . ... : ... .. . ...
ROW 27 : ... .. . ... : ... .. . ... : F-1 37 . ... : ... .. . ... : ... .. . ...
ROW 28 : G-4 22 . ... : ... .. . ... : D-1 1C . ... : 9-# 1D . ... : ... .. . ...
ROW 29 : ... .. . ... : ... .. . ... : F-1 37 . ... : ... .. . ... : ... .. . ...
ROW 2A : C-5 0F . ... : ... .. . ... : F-2 .. . ... : ... .. . ... : ... .. . ...
ROW 2B : ... .. . ... : ... .. . ... : --- .. . ... : ... .. . ... : ... .. . ...
ROW 2C : A-4 .. . ... : ... .. . ... : D-1 1B . ... : C-# 02 . ... : ... .. . ...
ROW 2D : ... .. . ... : ... .. . ... : A#1 37 . ... : ... .. . ... : ... .. . ...
ROW 2E : C-5 22 . ... : ... .. . ... : ... .. . ... : 0-# 05 . ... : ... .. . ...
ROW 2F : ... .. . ... : ... .. . ... : ... .. . ... : ... .. . ... : ... .. . ...
ROW 30 : G-4 0F . ... : ... .. . ... : A#2 .. . ... : 9-# 1D . ... : ... .. . ...
ROW 31 : ... .. . ... : ... .. . ... : --- .. . ... : ... .. . ... : ... .. . ...
ROW 32 : F-4 .. . ... : ... .. . ... : A#2 .. . ... : 0-# 05 . ... : ... .. . ...
ROW 33 : ... .. . ... : ... .. . ... : --- .. . ... : ... .. . ... : ... .. . ...
ROW 34 : E-4 0F . ... : ... .. . ... : A#2 .. . ... : C-# 04 . ... : ... .. . ...
ROW 35 : ... .. . ... : ... .. . ... : --- .. . ... : ... .. . ... : ... .. . ...
ROW 36 : F-4 10 . ... : ... .. . ... : ... .. . ... : C-# 02 . ... : ... .. . ...
ROW 37 : ... .. . ... : ... .. . ... : ... .. . ... : ... .. . ... : ... .. . ...
ROW 38 : ... .. . ... : ... .. . ... : D-1 1C . ... : 9-# 1D . ... : ... .. . ...
ROW 39 : ... .. . ... : ... .. . ... : A#2 37 . ... : ... .. . ... : ... .. . ...
ROW 3A : E-4 23 . ... : ... .. . ... : D-1 1B . ... : 0-# 05 . ... : ... .. . ...
ROW 3B : ... .. . ... : ... .. . ... : A-1 37 . ... : ... .. . ... : ... .. . ...
ROW 3C : D-4 0F . ... : ... .. . ... : --- .. . ... : 9-# 1D . ... : ... .. . ...
ROW 3D : ... .. . ... : ... .. . ... : ... .. . ... : ... .. . ... : ... .. . ...
ROW 3E : F-4 22 . ... : ... .. . ... : A-2 .. . ... : 0-# 05 . ... : ... .. . ...
ROW 3F : ... .. . ... : ... .. . ... : --- .. . ... : ... .. . ... : ... .. . ...

PATTERN 0B
ROW 00 : G#4 10 . ... : ... .. . ... : D-1 1B . ... : ... .. . ... : ... .. . ...
ROW 01 : ... .. . ... : ... .. . ... : E-1 37 . ... : ... .. . ... : ... .. . ...
ROW 02 : G-4 0F . ... : ... .. . ... : ... .. . ... : ... .. . ... : ... .. . ...
ROW 03 : ... .. . ... : ... .. . ... : ... .. . ... : ... .. . ... : ... .. . ...
ROW 04 : F-4 .. . ... : ... .. . ... : E-2 .. . ... : ... .. . ... : ... .. . ...
ROW 05 : ... .. . ... : ... .. . ... : --- .. . ... : ... .. . ... : ... .. . ...
ROW 06 : D-4 .. . ... : ... .. . ... : E-2 .. . ... : ... .. . ... : ... .. . ...
ROW 07 : ... .. . ... : ... .. . ... : --- .. . ... : ... .. . ... : ... .. . ...
ROW 08 : F-4 10 . ... : ... .. . ... : D-1 1C . ... : ... .. . ... : ... .. . ...
ROW 09 : ... .. . ... : ... .. . ... : --- .. . ... : ... .. . ... : ... .. . ...
ROW 0A : D-4 23 . ... : ... .. . ... : E-2 37 . ... : ... .. . ... : ... .. . ...
ROW 0B : ... .. . ... : ... .. . ... : --- .. . ... : ... .. . ... : ... .. . ...
ROW 0C : G#4 0F . ... : ... .. . ... : D-1 1B . ... : ... .. . ... : ... .. . ...
ROW 0D : ... .. . ... : ... .. . ... : A-1 37 . ... : ... .. . ... : ... .. . ...
ROW 0E : G-4 .. . ... : ... .. . ... : ... .. . ... : ... .. . ... : ... .. . ...
ROW 0F : ... .. . ... : ... .. . ... : ... .. . ... : ... .. . ... : ... .. . ...
ROW 10 : F-4 10 . ... : ... .. . ... : ... .. . ... : ... .. . ... : ... .. . ...
ROW 11 : ... .. . ... : ... .. . ... : --- .. . ... : ... .. . ... : ... .. . ...
ROW 12 : D-4 0F . ... : ... .. . ... : A-1 37 . ... : ... .. . ... : ... .. . ...
ROW 13 : ... .. . ... : ... .. . ... : --- .. . ... : ... .. . ... : ... .. . ...
ROW 14 : F-4 .. . ... : ... .. . ... : D-1 1B . ... : ... .. . ... : ... .. . ...
ROW 15 : ... .. . ... : ... .. . ... : G-2 04 . ... : ... .. . ... : ... .. . ...
ROW 16 : G-4 .. . ... : ... .. . ... : G-2 37 . ... : ... .. . ... : ... .. . ...
ROW 17 : ... .. . ... : ... .. . ... : --- .. . ... : ... .. . ... : ... .. . ...
ROW 18 : A-4 10 . ... : ... .. . ... : D-1 1C . ... : ... .. . ... : ... .. . ...
ROW 19 : ... .. . ... : ... .. . ... : A-2 37 . ... : ... .. . ... : ... .. . ...
ROW 1A : C-5 0F . ... : ... .. . ... : E-2 .. . ... : ... .. . ... : ... .. . ...
ROW 1B : ... .. . ... : ... .. . ... : ... .. . ... : ... .. . ... : ... .. . ...
ROW 1C : A-4 22 . ... : ... .. . ... : --- .. . ... : ... .. . ... : ... .. . ...
ROW 1D : ... .. . ... : ... .. . ... : ... .. . ... : ... .. . ... : ... .. . ...
ROW 1E : D-5 0F . ... : ... .. . ... : ... .. . ... : ... .. . ... : ... .. . ...
ROW 1F : ... .. . ... : ... .. . ... : ... .. . ... : ... .. . ... : ... .. . ...
ROW 20 : D-5 22 . ... : ... .. . ... : D-1 1B . ... : ... .. . ... : ... .. . ...
ROW 21 : ... .. . ... : ... .. . ... : F-1 37 . ... : ... .. . ... : ... .. . ...
ROW 22 : D-5 0F . ... : ... .. . ... : ... .. . ... : ... .. . ... : ... .. . ...
ROW 23 : ... .. . ... : ... .. . ... : ... .. . ... : ... .. . ... : ... .. . ...
ROW 24 : C-5 10 . ... : ... .. . ... : F-2 .. . ... : ... .. . ... : ... .. . ...
ROW 25 : ... .. . ... : ... .. . ... : --- .. . ... : ... .. . ... : ... .. . ...
ROW 26 : D-5 22 . ... : ... .. . ... : D-1 1B . ... : ... .. . ... : ... .. . ...
ROW 27 : ... .. . ... : ... .. . ... : G-1 37 . ... : ... .. . ... : ... .. . ...
ROW 28 : C-5 0F . ... : ... .. . ... : D-1 1C . ... : ... .. . ... : ... .. . ...
ROW 29 : ... .. . ... : ... .. . ... : --- .. . ... : ... .. . ... : ... .. . ...
ROW 2A : A-4 .. . ... : ... .. . ... : G-2 37 . ... : ... .. . ... : ... .. . ...
ROW 2B : ... .. . ... : ... .. . ... : --- .. . ... : ... .. . ... : ... .. . ...
ROW 2C : C-5 22 . ... : ... .. . ... : D-1 1B . ... : ... .. . ... : ... .. . ...
ROW 2D : ... .. . ... : ... .. . ... : D-1 37 . ... : ... .. . ... : ... .. . ...
ROW 2E : A-4 0F . ... : ... .. . ... : A-2 2B . ... : ... .. . ... : ... .. . ...
ROW 2F : ... .. . ... : ... .. . ... : D-1 37 . ... : ... .. . ... : ... .. . ...
ROW 30 : G-4 10 . ... : ... .. . ... : D-1 1C . ... : ... .. . ... : ... .. . ...
ROW 31 : ... .. . ... : ... .. . ... : D-2 04 . ... : ... .. . ... : ... .. . ...
ROW 32 : A-4 22 . ... : ... .. . ... : D-1 1B . ... : ... .. . ... : ... .. . ...
ROW 33 : ... .. . ... : ... .. . ... : D-2 04 . ... : ... .. . ... : ... .. . ...
ROW 34 : G-4 0F . ... : ... .. . ... : G#2 2B . ... : ... .. . ... : ... .. . ...
ROW 35 : F-4 .. . ... : ... .. . ... : ... .. . ... : ... .. . ... : ... .. . ...
ROW 36 : D-4 .. . ... : ... .. . ... : G-2 2B . ... : ... .. . ... : ... .. . ...
ROW 37 : F-4 .. . ... : ... .. . ... : D-2 37 . ... : ... .. . ... : ... .. . ...
ROW 38 : D-4 .. . ... : ... .. . ... : D-1 1C . ... : ... .. . ... : ... .. . ...
ROW 39 : C-4 .. . ... : ... .. . ... : --- .. . ... : ... .. . ... : ... .. . ...
ROW 3A : D-4 .. . ... : ... .. . ... : F#2 2B . ... : ... .. . ... : ... .. . ...
ROW 3B : C-4 .. . ... : ... .. . ... : C-2 37 . ... : ... .. . ... : ... .. . ...
ROW 3C : A-3 .. . ... : ... .. . ... : D-1 1C . ... : ... .. . ... : ... .. . ...
ROW 3D : ... .. . ... : ... .. . ... : --- .. . ... : ... .. . ... : ... .. . ...
ROW 3E : C-4 .. . ... : ... .. . ... : D-1 1B . ... : ... .. . ... : ... .. . ...
ROW 3F : ... .. . ... : ... .. . ... : G-2 37 . ... : ... .. . ... : ... .. . ...

PATTERN 0C
ROW 00 : D-4 20 . ... : A#3 20 . ... : ... .. . ... : ... .. . ... : ... .. . ...
ROW 01 : ... .. . ... : ... .. . ... : ... .. . ... : ... .. . ... : ... .. . ...
ROW 02 : ... .. . ... : ... .. . ... : ... .. . ... : ... .. . ... : ... .. . ...
ROW 03 : ... .. . ... : ... .. . ... : ... .. . ... : ... .. . ... : ... .. . ...
ROW 04 : ... .. . ... : ... .. . ... : ... .. . ... : ... .. . ... : ... .. . ...
ROW 05 : ... .. . ... : ... .. . ... : ... .. . ... : ... .. . ... : ... .. . ...
ROW 06 : D-4 1F . ... : A#3 1F . ... : ... .. . ... : ... .. . ... : ... .. . ...
ROW 07 : ... .. . ... : ... .. . ... : ... .. . ... : ... .. . ... : ... .. . ...
ROW 08 : D-4 .. . ... : A#3 .. . ... : ... .. . ... : ... .. . ... : ... .. . ...
ROW 09 : ... .. . ... : ... .. . ... : ... .. . ... : ... .. . ... : ... .. . ...
ROW 0A : D-4 11 . ... : A#3 11 . ... : ... .. . ... : ... .. . ... : ... .. . ...
ROW 0B : ... .. . ... : ... .. . ... : ... .. . ... : ... .. . ... : ... .. . ...
ROW 0C : E-4 20 . ... : C-4 20 . ... : ... .. . ... : ... .. . ... : ... .. . ...
ROW 0D : ... .. . ... : ... .. . ... : ... .. . ... : ... .. . ... : ... .. . ...
ROW 0E : ... .. . ... : ... .. . ... : ... .. . ... : ... .. . ... : ... .. . ...
ROW 0F : ... .. . ... : ... .. . ... : ... .. . ... : ... .. . ... : ... .. . ...
ROW 10 : D-4 11 . ... : A#3 11 . ... : ... .. . ... : ... .. . ... : ... .. . ...
ROW 11 : ... .. . ... : ... .. . ... : ... .. . ... : ... .. . ... : ... .. . ...
ROW 12 : E-4 11 . ... : C-4 11 . ... : ... .. . ... : ... .. . ... : ... .. . ...
ROW 13 : ... .. . ... : ... .. . ... : ... .. . ... : ... .. . ... : ... .. . ...
ROW 14 : E-4 1F . ... : C-4 1F . ... : ... .. . ... : ... .. . ... : ... .. . ...
ROW 15 : --- .. . ... : --- .. . ... : ... .. . ... : ... .. . ... : ... .. . ...
ROW 16 : E-4 .. . ... : C-4 .. . ... : ... .. . ... : ... .. . ... : ... .. . ...
ROW 17 : ... .. . ... : ... .. . ... : ... .. . ... : ... .. . ... : ... .. . ...
ROW 18 : E-4 11 . ... : C-4 11 . ... : ... .. . ... : ... .. . ... : ... .. . ...
ROW 19 : ... .. . ... : ... .. . ... : ... .. . ... : ... .. . ... : ... .. . ...
ROW 1A : C-4 20 . ... : A-3 20 . ... : ... .. . ... : ... .. . ... : ... .. . ...
ROW 1B : ... .. . ... : ... .. . ... : ... .. . ... : ... .. . ... : ... .. . ...
ROW 1C : ... .. . ... : ... .. . ... : ... .. . ... : ... .. . ... : ... .. . ...
ROW 1D : ... .. . ... : ... .. . ... : ... .. . ... : ... .. . ... : ... .. . ...
ROW 1E : E-4 11 . ... : C-4 11 . ... : ... .. . ... : ... .. . ... : ... .. . ...
ROW 1F : ... .. . ... : ... .. . ... : ... .. . ... : ... .. . ... : ... .. . ...
ROW 20 : D-4 20 . ... : A-3 20 . ... : ... .. . ... : ... .. . ... : ... .. . ...
ROW 21 : ... .. . ... : ... .. . ... : ... .. . ... : ... .. . ... : ... .. . ...
ROW 22 : ... .. . ... : ... .. . ... : ... .. . ... : ... .. . ... : ... .. . ...
ROW 23 : ... .. . ... : ... .. . ... : ... .. . ... : ... .. . ... : ... .. . ...
ROW 24 : ... .. . ... : ... .. . ... : ... .. . ... : ... .. . ... : ... .. . ...
ROW 25 : ... .. . ... : ... .. . ... : ... .. . ... : ... .. . ... : ... .. . ...
ROW 26 : D-4 1F . ... : A-3 1F . ... : ... .. . ... : ... .. . ... : ... .. . ...
ROW 27 : --- .. . ... : --- .. . ... : ... .. . ... : ... .. . ... : ... .. . ...
ROW 28 : D-4 .. . ... : A-3 .. . ... : ... .. . ... : ... .. . ... : ... .. . ...
ROW 29 : ... .. . ... : ... .. . ... : ... .. . ... : ... .. . ... : ... .. . ...
ROW 2A : D-4 11 . ... : A-3 11 . ... : ... .. . ... : ... .. . ... : ... .. . ...
ROW 2B : ... .. . ... : ... .. . ... : ... .. . ... : ... .. . ... : ... .. . ...
ROW 2C : A#3 20 . ... : G-3 20 . ... : ... .. . ... : ... .. . ... : ... .. . ...
ROW 2D : ... .. . ... : ... .. . ... : ... .. . ... : ... .. . ... : ... .. . ...
ROW 2E : ... .. . ... : ... .. . ... : ... .. . ... : ... .. . ... : ... .. . ...
ROW 2F : ... .. . ... : ... .. . ... : ... .. . ... : ... .. . ... : ... .. . ...
ROW 30 : D-4 11 . ... : A-3 11 . ... : ... .. . ... : ... .. . ... : ... .. . ...
ROW 31 : ... .. . ... : ... .. . ... : ... .. . ... : ... .. . ... : ... .. . ...
ROW 32 : A#3 11 . ... : G-3 11 . ... : ... .. . ... : ... .. . ... : ... .. . ...
ROW 33 : ... .. . ... : ... .. . ... : ... .. . ... : ... .. . ... : ... .. . ...
ROW 34 : A#3 1F . ... : G-3 1F . ... : ... .. . ... : ... .. . ... : ... .. . ...
ROW 35 : --- .. . ... : --- .. . ... : ... .. . ... : ... .. . ... : ... .. . ...
ROW 36 : A#3 .. . ... : G-3 .. . ... : ... .. . ... : ... .. . ... : ... .. . ...
ROW 37 : ... .. . ... : ... .. . ... : ... .. . ... : ... .. . ... : ... .. . ...
ROW 38 : A#3 11 . ... : G-3 11 . ... : ... .. . ... : ... .. . ... : ... .. . ...
ROW 39 : ... .. . ... : ... .. . ... : ... .. . ... : ... .. . ... : ... .. . ...
ROW 3A : A-3 20 . ... : F-3 20 . ... : ... .. . ... : ... .. . ... : ... .. . ...
ROW 3B : ... .. . ... : ... .. . ... : ... .. . ... : ... .. . ... : ... .. . ...
ROW 3C : ... .. . ... : ... .. . ... : ... .. . ... : ... .. . ... : ... .. . ...
ROW 3D : ... .. . ... : ... .. . ... : ... .. . ... : ... .. . ... : ... .. . ...
ROW 3E : A#3 11 . ... : G-3 11 . ... : ... .. . ... : ... .. . ... : ... .. . ...
ROW 3F : ... .. . ... : ... .. . ... : ... .. . ... : ... .. . ... : ... .. . ...

PATTERN 0D
ROW 00 : A#3 20 . ... : G-3 20 . ... : ... .. . ... : ... .. . ... : ... .. . ...
ROW 01 : ... .. . ... : ... .. . ... : ... .. . ... : ... .. . ... : ... .. . ...
ROW 02 : ... .. . ... : ... .. . ... : ... .. . ... : ... .. . ... : ... .. . ...
ROW 03 : ... .. . ... : ... .. . ... : ... .. . ... : ... .. . ... : ... .. . ...
ROW 04 : A-3 11 . ... : F-3 11 . ... : ... .. . ... : ... .. . ... : ... .. . ...
ROW 05 : ... .. . ... : ... .. . ... : ... .. . ... : ... .. . ... : ... .. . ...
ROW 06 : A#3 1F . ... : G-3 1F . ... : ... .. . ... : ... .. . ... : ... .. . ...
ROW 07 : --- .. . ... : --- .. . ... : ... .. . ... : ... .. . ... : ... .. . ...
ROW 08 : A#3 .. . ... : G-3 .. . ... : ... .. . ... : ... .. . ... : ... .. . ...
ROW 09 : ... .. . ... : ... .. . ... : ... .. . ... : ... .. . ... : ... .. . ...
ROW 0A : A#3 11 . ... : G-3 11 . ... : ... .. . ... : ... .. . ... : ... .. . ...
ROW 0B : ... .. . ... : ... .. . ... : ... .. . ... : ... .. . ... : ... .. . ...
ROW 0C : A-3 20 . ... : F-3 20 . ... : ... .. . ... : ... .. . ... : ... .. . ...
ROW 0D : ... .. . ... : ... .. . ... : ... .. . ... : ... .. . ... : ... .. . ...
ROW 0E : ... .. . ... : ... .. . ... : ... .. . ... : ... .. . ... : ... .. . ...
ROW 0F : ... .. . ... : ... .. . ... : ... .. . ... : ... .. . ... : ... .. . ...
ROW 10 : A#3 11 . ... : G-3 11 . ... : ... .. . ... : ... .. . ... : ... .. . ...
ROW 11 : ... .. . ... : ... .. . ... : ... .. . ... : ... .. . ... : ... .. . ...
ROW 12 : A-3 1F . ... : F-3 1F . ... : ... .. . ... : ... .. . ... : ... .. . ...
ROW 13 : --- .. . ... : --- .. . ... : ... .. . ... : ... .. . ... : ... .. . ...
ROW 14 : A-3 .. . ... : F-3 .. . ... : ... .. . ... : ... .. . ... : ... .. . ...
ROW 15 : ... .. . ... : ... .. . ... : ... .. . ... : ... .. . ... : ... .. . ...
ROW 16 : A-3 11 . ... : F-3 11 . ... : ... .. . ... : ... .. . ... : ... .. . ...
ROW 17 : ... .. . ... : ... .. . ... : ... .. . ... : ... .. . ... : ... .. . ...
ROW 18 : A-3 1F . ... : F-3 1F . ... : ... .. . ... : ... .. . ... : ... .. . ...
ROW 19 : ... .. . ... : ... .. . ... : ... .. . ... : ... .. . ... : ... .. . ...
ROW 1A : G-3 .. . ... : E-3 .. . ... : ... .. . ... : ... .. . ... : ... .. . ...
ROW 1B : ... .. . ... : ... .. . ... : ... .. . ... : ... .. . ... : ... .. . ...
ROW 1C : ... .. . ... : ... .. . ... : ... .. . ... : ... .. . ... : ... .. . ...
ROW 1D : ... .. . ... : ... .. . ... : ... .. . ... : ... .. . ... : ... .. . ...
ROW 1E : A-3 11 . ... : F-3 11 . ... : ... .. . ... : ... .. . ... : ... .. . ...
ROW 1F : ... .. . ... : ... .. . ... : ... .. . ... : ... .. . ... : ... .. . ...
ROW 20 : F-3 20 . ... : D-3 20 . ... : ... .. . ... : ... .. . ... : ... .. . ...
ROW 21 : ... .. . ... : ... .. . ... : ... .. . ... : ... .. . ... : ... .. . ...
ROW 22 : ... .. . ... : ... .. . ... : ... .. . ... : ... .. . ... : ... .. . ...
ROW 23 : ... .. . ... : ... .. . ... : ... .. . ... : ... .. . ... : ... .. . ...
ROW 24 : G-3 11 . ... : E-3 11 . ... : ... .. . ... : ... .. . ... : ... .. . ...
ROW 25 : ... .. . ... : ... .. . ... : ... .. . ... : ... .. . ... : ... .. . ...
ROW 26 : F-3 1F . ... : D-3 1F . ... : ... .. . ... : ... .. . ... : ... .. . ...
ROW 27 : ... .. . ... : ... .. . ... : ... .. . ... : ... .. . ... : ... .. . ...
ROW 28 : G-3 .. . ... : E-3 .. . ... : ... .. . ... : ... .. . ... : ... .. . ...
ROW 29 : ... .. . ... : ... .. . ... : ... .. . ... : ... .. . ... : ... .. . ...
ROW 2A : F-3 11 . ... : D-3 11 . ... : ... .. . ... : ... .. . ... : ... .. . ...
ROW 2B : ... .. . ... : ... .. . ... : ... .. . ... : ... .. . ... : ... .. . ...
ROW 2C : A-3 20 . ... : F-3 20 . ... : ... .. . ... : ... .. . ... : ... .. . ...
ROW 2D : ... .. . ... : ... .. . ... : ... .. . ... : ... .. . ... : ... .. . ...
ROW 2E : ... .. . ... : ... .. . ... : ... .. . ... : ... .. . ... : ... .. . ...
ROW 2F : ... .. . ... : ... .. . ... : ... .. . ... : ... .. . ... : ... .. . ...
ROW 30 : G-3 11 . ... : E-3 11 . ... : ... .. . ... : ... .. . ... : ... .. . ...
ROW 31 : ... .. . ... : ... .. . ... : ... .. . ... : ... .. . ... : ... .. . ...
ROW 32 : D-4 20 . ... : --- 20 . ... : ... .. . ... : ... .. . ... : ... .. . ...
ROW 33 : ... .. . ... : ... .. . ... : ... .. . ... : ... .. . ... : ... .. . ...
ROW 34 : ... .. . ... : ... .. . ... : ... .. . ... : ... .. . ... : ... .. . ...
ROW 35 : ... .. . ... : ... .. . ... : ... .. . ... : ... .. . ... : ... .. . ...
ROW 36 : C-4 1F . ... : ... 1F . ... : ... .. . ... : ... .. . ... : ... .. . ...
ROW 37 : ... .. . ... : ... .. . ... : ... .. . ... : ... .. . ... : ... .. . ...
ROW 38 : D-4 20 . ... : ... 20 . ... : ... .. . ... : ... .. . ... : ... .. . ...
ROW 39 : ... .. . ... : ... .. . ... : ... .. . ... : ... .. . ... : ... .. . ...
ROW 3A : G-4 1F . ... : ... 1F . ... : ... .. . ... : ... .. . ... : ... .. . ...
ROW 3B : ... .. . ... : ... .. . ... : ... .. . ... : ... .. . ... : ... .. . ...
ROW 3C : F-4 .. . ... : ... .. . ... : ... .. . ... : ... .. . ... : ... .. . ...
ROW 3D : ... .. . ... : ... .. . ... : ... .. . ... : ... .. . ... : ... .. . ...
ROW 3E : C-4 .. . ... : ... .. . ... : ... .. . ... : ... .. . ... : ... .. . ...
ROW 3F : ... .. . ... : ... .. . ... : ... .. . ... : ... .. . ... : ... .. . ...

PATTERN 0E
ROW 00 : D-4 20 . ... : G-2 1E . ... : ... .. . ... : ... .. . ... : ... .. . ...
ROW 01 : ... .. . ... : ... .. . ... : ... .. . ... : ... .. . ... : ... .. . ...
ROW 02 : ... .. . ... : ... .. . ... : ... .. . ... : ... .. . ... : ... .. . ...
ROW 03 : ... .. . ... : ... .. . ... : ... .. . ... : ... .. . ... : ... .. . ...
ROW 04 : C-4 11 . ... : G-3 .. . ... : ... .. . ... : ... .. . ... : ... .. . ...
ROW 05 : ... .. . ... : --- .. . ... : ... .. . ... : ... .. . ... : ... .. . ...
ROW 06 : G-4 1F . ... : G-3 .. . ... : ... .. . ... : ... .. . ... : ... .. . ...
ROW 07 : ... .. . ... : --- .. . ... : ... .. . ... : ... .. . ... : ... .. . ...
ROW 08 : F-4 20 . ... : G-2 21 . ... : ... .. . ... : ... .. . ... : ... .. . ...
ROW 09 : ... .. . ... : ... .. . ... : ... .. . ... : ... .. . ... : ... .. . ...
ROW 0A : ... .. . ... : G-3 1E . ... : ... .. . ... : ... .. . ... : ... .. . ...
ROW 0B : ... .. . ... : --- .. . ... : ... .. . ... : ... .. . ... : ... .. . ...
ROW 0C : E-4 .. . ... : C-3 .. . ... : ... .. . ... : ... .. . ... : ... .. . ...
ROW 0D : ... .. . ... : ... .. . ... : ... .. . ... : ... .. . ... : ... .. . ...
ROW 0E : ... .. . ... : ... .. . ... : ... .. . ... : ... .. . ... : ... .. . ...
ROW 0F : ... .. . ... : ... .. . ... : ... .. . ... : ... .. . ... : ... .. . ...
ROW 10 : F-4 11 . ... : G-3 21 . ... : ... .. . ... : ... .. . ... : ... .. . ...
ROW 11 : ... .. . ... : ... .. . ... : ... .. . ... : ... .. . ... : ... .. . ...
ROW 12 : E-4 11 . ... : C-3 21 . ... : ... .. . ... : ... .. . ... : ... .. . ...
ROW 13 : ... .. . ... : ... .. . ... : ... .. . ... : ... .. . ... : ... .. . ...
ROW 14 : C-4 1F . ... : C-4 1E . ... : ... .. . ... : ... .. . ... : ... .. . ...
ROW 15 : ... .. . ... : --- .. . ... : ... .. . ... : ... .. . ... : ... .. . ...
ROW 16 : E-4 .. . ... : C-4 .. . ... : ... .. . ... : ... .. . ... : ... .. . ...
ROW 17 : ... .. . ... : --- .. . ... : ... .. . ... : ... .. . ... : ... .. . ...
ROW 18 : C-4 11 . ... : C-3 27 . ... : ... .. . ... : ... .. . ... : ... .. . ...
ROW 19 : ... .. . ... : ... .. . ... : ... .. . ... : ... .. . ... : ... .. . ...
ROW 1A : C-4 1F . ... : C-4 1E . ... : ... .. . ... : ... .. . ... : ... .. . ...
ROW 1B : ... .. . ... : --- .. . ... : ... .. . ... : ... .. . ... : ... .. . ...
ROW 1C : ... .. . ... : C-4 .. . ... : ... .. . ... : ... .. . ... : ... .. . ...
ROW 1D : ... .. . ... : ... .. . ... : ... .. . ... : ... .. . ... : ... .. . ...
ROW 1E : E-4 11 . ... : ... .. . ... : ... .. . ... : ... .. . ... : ... .. . ...
ROW 1F : ... .. . ... : ... .. . ... : ... .. . ... : ... .. . ... : ... .. . ...
ROW 20 : D-4 20 . ... : F-2 .. . ... : ... .. . ... : ... .. . ... : ... .. . ...
ROW 21 : ... .. . ... : ... .. . ... : ... .. . ... : ... .. . ... : ... .. . ...
ROW 22 : ... .. . ... : C-4 27 . ... : ... .. . ... : ... .. . ... : ... .. . ...
ROW 23 : ... .. . ... : ... .. . ... : ... .. . ... : ... .. . ... : ... .. . ...
ROW 24 : C-4 11 . ... : F-3 1E . ... : ... .. . ... : ... .. . ... : ... .. . ...
ROW 25 : ... .. . ... : --- .. . ... : ... .. . ... : ... .. . ... : ... .. . ...
ROW 26 : F-4 1F . ... : F-2 .. . ... : ... .. . ... : ... .. . ... : ... .. . ...
ROW 27 : ... .. . ... : ... .. . ... : ... .. . ... : ... .. . ... : ... .. . ...
ROW 28 : E-4 .. . ... : F-3 21 . ... : ... .. . ... : ... .. . ... : ... .. . ...
ROW 29 : ... .. . ... : ... .. . ... : ... .. . ... : ... .. . ... : ... .. . ...
ROW 2A : F-4 11 . ... : F-3 1E . ... : ... .. . ... : ... .. . ... : ... .. . ...
ROW 2B : ... .. . ... : --- .. . ... : ... .. . ... : ... .. . ... : ... .. . ...
ROW 2C : A#3 20 . ... : A#2 .. . ... : ... .. . ... : ... .. . ... : ... .. . ...
ROW 2D : ... .. . ... : ... .. . ... : ... .. . ... : ... .. . ... : ... .. . ...
ROW 2E : ... .. . ... : F-3 21 . ... : ... .. . ... : ... .. . ... : ... .. . ...
ROW 2F : ... .. . ... : ... .. . ... : ... .. . ... : ... .. . ... : ... .. . ...
ROW 30 : ... .. . ... : A#3 1E . ... : ... .. . ... : ... .. . ... : ... .. . ...
ROW 31 : ... .. . ... : --- .. . ... : ... .. . ... : ... .. . ... : ... .. . ...
ROW 32 : E-4 11 . ... : A#3 .. . ... : ... .. . ... : ... .. . ... : ... .. . ...
ROW 33 : ... .. . ... : --- .. . ... : ... .. . ... : ... .. . ... : ... .. . ...
ROW 34 : D-4 1F . ... : A#3 .. . ... : ... .. . ... : ... .. . ... : ... .. . ...
ROW 35 : ... .. . ... : --- .. . ... : ... .. . ... : ... .. . ... : ... .. . ...
ROW 36 : E-4 20 . ... : A#2 27 . ... : ... .. . ... : ... .. . ... : ... .. . ...
ROW 37 : ... .. . ... : ... .. . ... : ... .. . ... : ... .. . ... : ... .. . ...
ROW 38 : A#3 1F . ... : A#3 1E . ... : ... .. . ... : ... .. . ... : ... .. . ...
ROW 39 : ... .. . ... : ... .. . ... : ... .. . ... : ... .. . ... : ... .. . ...
ROW 3A : A-3 20 . ... : A-2 .. . ... : ... .. . ... : ... .. . ... : ... .. . ...
ROW 3B : ... .. . ... : ... .. . ... : ... .. . ... : ... .. . ... : ... .. . ...
ROW 3C : ... .. . ... : A#3 21 . ... : ... .. . ... : ... .. . ... : ... .. . ...
ROW 3D : ... .. . ... : ... .. . ... : ... .. . ... : ... .. . ... : ... .. . ...
ROW 3E : A#3 11 . ... : A-3 1E . ... : ... .. . ... : ... .. . ... : ... .. . ...
ROW 3F : ... .. . ... : --- .. . ... : ... .. . ... : ... .. . ... : ... .. . ...

PATTERN 0F
ROW 00 : A#3 1F . ... : E-2 1E . ... : ... .. . ... : ... .. . ... : ... .. . ...
ROW 01 : ... .. . ... : ... .. . ... : ... .. . ... : ... .. . ... : ... .. . ...
ROW 02 : D-4 20 . ... : ... .. . ... : ... .. . ... : ... .. . ... : ... .. . ...
ROW 03 : ... .. . ... : ... .. . ... : ... .. . ... : ... .. . ... : ... .. . ...
ROW 04 : E-4 1F . ... : E-3 .. . ... : ... .. . ... : ... .. . ... : ... .. . ...
ROW 05 : ... .. . ... : --- .. . ... : ... .. . ... : ... .. . ... : ... .. . ...
ROW 06 : F-4 .. . ... : E-3 .. . ... : ... .. . ... : ... .. . ... : ... .. . ...
ROW 07 : ... .. . ... : --- .. . ... : ... .. . ... : ... .. . ... : ... .. . ...
ROW 08 : E-4 20 . ... : E-2 21 . ... : ... .. . ... : ... .. . ... : ... .. . ...
ROW 09 : ... .. . ... : ... .. . ... : ... .. . ... : ... .. . ... : ... .. . ...
ROW 0A : ... .. . ... : E-3 1E . ... : ... .. . ... : ... .. . ... : ... .. . ...
ROW 0B : ... .. . ... : --- .. . ... : ... .. . ... : ... .. . ... : ... .. . ...
ROW 0C : G-4 20 . ... : A-2 .. . ... : ... .. . ... : ... .. . ... : ... .. . ...
ROW 0D : ... .. . ... : ... .. . ... : ... .. . ... : ... .. . ... : ... .. . ...
ROW 0E : ... .. . ... : ... .. . ... : ... .. . ... : ... .. . ... : ... .. . ...
ROW 0F : ... .. . ... : ... .. . ... : ... .. . ... : ... .. . ... : ... .. . ...
ROW 10 : E-4 11 . ... : E-3 21 . ... : ... .. . ... : ... .. . ... : ... .. . ...
ROW 11 : ... .. . ... : ... .. . ... : ... .. . ... : ... .. . ... : ... .. . ...
ROW 12 : E-4 1F . ... : A-2 21 . ... : ... .. . ... : ... .. . ... : ... .. . ...
ROW 13 : ... .. . ... : ... .. . ... : ... .. . ... : ... .. . ... : ... .. . ...
ROW 14 : G-4 .. . ... : G-3 1E . ... : ... .. . ... : ... .. . ... : ... .. . ...
ROW 15 : ... .. . ... : --- .. . ... : ... .. . ... : ... .. . ... : ... .. . ...
ROW 16 : E-4 11 . ... : G-3 .. . ... : ... .. . ... : ... .. . ... : ... .. . ...
ROW 17 : ... .. . ... : --- .. . ... : ... .. . ... : ... .. . ... : ... .. . ...
ROW 18 : E-4 1F . ... : A-3 .. . ... : ... .. . ... : ... .. . ... : ... .. . ...
ROW 19 : ... .. . ... : --- .. . ... : ... .. . ... : ... .. . ... : ... .. . ...
ROW 1A : C#4 20 . ... : E-3 .. . ... : ... .. . ... : ... .. . ... : ... .. . ...
ROW 1B : ... .. . ... : ... .. . ... : ... .. . ... : ... .. . ... : ... .. . ...
ROW 1C : ... .. . ... : --- .. . ... : ... .. . ... : ... .. . ... : ... .. . ...
ROW 1D : ... .. . ... : ... .. . ... : ... .. . ... : ... .. . ... : ... .. . ...
ROW 1E : E-4 11 . ... : A-3 21 . ... : ... .. . ... : ... .. . ... : ... .. . ...
ROW 1F : ... .. . ... : ... .. . ... : ... .. . ... : ... .. . ... : ... .. . ...
ROW 20 : D-4 20 . ... : F-2 1E . ... : ... .. . ... : ... .. . ... : ... .. . ...
ROW 21 : ... .. . ... : ... .. . ... : ... .. . ... : ... .. . ... : ... .. . ...
ROW 22 : ... .. . ... : E-3 21 . ... : ... .. . ... : ... .. . ... : ... .. . ...
ROW 23 : ... .. . ... : ... .. . ... : ... .. . ... : ... .. . ... : ... .. . ...
ROW 24 : C#4 11 . ... : F-3 1E . ... : ... .. . ... : ... .. . ... : ... .. . ...
ROW 25 : ... .. . ... : --- .. . ... : ... .. . ... : ... .. . ... : ... .. . ...
ROW 26 : D-4 1F . ... : G-2 .. . ... : ... .. . ... : ... .. . ... : ... .. . ...
ROW 27 : ... .. . ... : ... .. . ... : ... .. . ... : ... .. . ... : ... .. . ...
ROW 28 : E-4 .. . ... : F-2 21 . ... : ... .. . ... : ... .. . ... : ... .. . ...
ROW 29 : ... .. . ... : ... .. . ... : ... .. . ... : ... .. . ... : ... .. . ...
ROW 2A : D-4 11 . ... : G-3 1E . ... : ... .. . ... : ... .. . ... : ... .. . ...
ROW 2B : ... .. . ... : --- .. . ... : ... .. . ... : ... .. . ... : ... .. . ...
ROW 2C : F-4 20 . ... : D-2 .. . ... : ... .. . ... : ... .. . ... : ... .. . ...
ROW 2D : ... .. . ... : ... .. . ... : ... .. . ... : ... .. . ... : ... .. . ...
ROW 2E : ... .. . ... : G-3 21 . ... : ... .. . ... : ... .. . ... : ... .. . ...
ROW 2F : ... .. . ... : ... .. . ... : ... .. . ... : ... .. . ... : ... .. . ...
ROW 30 : E-4 11 . ... : D-3 1E . ... : ... .. . ... : ... .. . ... : ... .. . ...
ROW 31 : ... .. . ... : --- .. . ... : ... .. . ... : ... .. . ... : ... .. . ...
ROW 32 : D-4 1F . ... : D-3 .. . ... : ... .. . ... : ... .. . ... : ... .. . ...
ROW 33 : ... .. . ... : --- .. . ... : ... .. . ... : ... .. . ... : ... .. . ...
ROW 34 : F-4 11 . ... : D-2 27 . ... : ... .. . ... : ... .. . ... : ... .. . ...
ROW 35 : ... .. . ... : ... .. . ... : ... .. . ... : ... .. . ... : ... .. . ...
ROW 36 : C-4 1F . ... : D-3 1E . ... : ... .. . ... : ... .. . ... : ... .. . ...
ROW 37 : ... .. . ... : --- .. . ... : ... .. . ... : ... .. . ... : ... .. . ...
ROW 38 : D-4 20 . ... : ... .. . ... : ... .. . ... : ... .. . ... : ... .. . ...
ROW 39 : ... .. . ... : ... .. . ... : ... .. . ... : ... .. . ... : ... .. . ...
ROW 3A : G-4 1F . ... : C-3 .. . ... : ... .. . ... : ... .. . ... : ... .. . ...
ROW 3B : ... .. . ... : ... .. . ... : ... .. . ... : ... .. . ... : ... .. . ...
ROW 3C : F-4 20 . ... : D-3 21 . ... : ... .. . ... : ... .. . ... : ... .. . ...
ROW 3D : ... .. . ... : ... .. . ... : ... .. . ... : ... .. . ... : ... .. . ...
ROW 3E : ... .. . ... : G-3 1E . ... : ... .. . ... : ... .. . ... : ... .. . ...
ROW 3F : ... .. . ... : --- .. . ... : ... .. . ... : ... .. . ... : ... .. . ...

# End of export
